<?xml version="1.0" encoding="utf-8"?>
<svg width="38" height="24" viewBox="0 0 38 24" fill="none" xmlns="http://www.w3.org/2000/svg">
<g id="Frame">
<g id="Group">
<path id="Vector" opacity="0.07" d="M34.9926 0.00244141H2.99937C1.29973 0.00244141 0 1.30217 0 3.00181V20.998C0 22.6977 1.39971 23.9974 2.99937 23.9974H34.9926C36.6923 23.9974 37.992 22.6977 37.992 20.998V3.00181C37.992 1.30217 36.5923 0.00244141 34.9926 0.00244141Z" fill="black"/>
<path id="Vector_2" d="M34.9928 1.00244C36.0926 1.00244 36.9924 1.90225 36.9924 3.00202V20.9982C36.9924 22.098 36.0926 22.9978 34.9928 22.9978H2.99958C1.89981 22.9978 1 22.098 1 20.9982V3.00202C1 1.90225 1.89981 1.00244 2.99958 1.00244H34.9928Z" fill="#006FCF"/>
<path id="Vector_3" d="M8.96898 10.2685L9.74281 12.1441H8.20114L8.96898 10.2685ZM25.0406 10.3465H22.0642V11.1733H24.9926V12.412H22.0702V13.3339H25.0466V14.0727L27.1232 11.8282L25.0466 9.48866L25.0406 10.3465ZM10.9806 8.00697H14.9747L15.8615 9.94157L16.6834 8.00098H27.0512L28.1289 9.19073L29.2437 8.00098H34.0057L30.4874 11.8522L33.9697 15.6794H29.1367L28.059 14.4896L26.9342 15.6794H10.0278L9.53386 14.4896H8.4041L7.9092 15.6794H3.99902L7.28433 8.00098H10.7136L10.9806 8.00697ZM19.6417 9.08475H17.4032L15.9035 12.62L14.2789 9.08475H12.0573V13.8937L9.99776 9.08475H8.00518L5.62368 14.5956H7.17835L7.67225 13.4058H10.2677L10.7616 14.5956H13.481V10.6614L15.2317 14.6016H16.4214L18.161 10.6734V14.6026H19.6187L19.6427 9.08375L19.6417 9.08475ZM28.9798 11.8522L31.5102 9.08475H29.6886L28.088 10.8104L26.5403 9.08475H20.6475V14.6016H26.4563L28.07 12.864L29.6176 14.6016H31.4922L28.9808 11.8522H28.9798Z" fill="white"/>
</g>
</g>
</svg>
