<svg width="15" height="16" viewBox="0 0 15 16" fill="none" xmlns="http://www.w3.org/2000/svg">
<g id="cancel-small_minor">
<path id="Primary fill" fill-rule="evenodd" clip-rule="evenodd" d="M8.44263 8.00008L11.3045 5.13814C11.5652 4.87748 11.5652 4.45616 11.3045 4.1955C11.0439 3.93483 10.6225 3.93483 10.3619 4.1955L7.5 7.05744L4.63812 4.1955C4.37746 3.93483 3.95615 3.93483 3.69549 4.1955C3.43484 4.45616 3.43484 4.87748 3.69549 5.13814L6.55737 8.00008L3.69549 10.862C3.43484 11.1227 3.43484 11.544 3.69549 11.8047C3.82549 11.9347 3.99615 12 4.16681 12C4.33747 12 4.50812 11.9347 4.63812 11.8047L7.5 8.94273L10.3619 11.8047C10.4919 11.9347 10.6625 12 10.8332 12C11.0039 12 11.1745 11.9347 11.3045 11.8047C11.5652 11.544 11.5652 11.1227 11.3045 10.862L8.44263 8.00008Z" fill="black"/>
</g>
</svg>
