<?xml version="1.0" encoding="utf-8"?>
<svg width="39" height="24" viewBox="0 0 39 24" fill="none" xmlns="http://www.w3.org/2000/svg">
<g id="Frame">
<path id="Vector" opacity="0.07" d="M35.9848 0.00244141H3.99156C2.29191 0.00244141 0.992188 1.30217 0.992188 3.00181V20.998C0.992188 22.6977 2.39189 23.9974 3.99156 23.9974H35.9848C37.6845 23.9974 38.9842 22.6977 38.9842 20.998V3.00181C38.9842 1.30217 37.5845 0.00244141 35.9848 0.00244141Z" fill="black"/>
<path id="Vector_2" d="M35.985 1.00244C37.0848 1.00244 37.9846 1.90225 37.9846 3.00202V20.9982C37.9846 22.098 37.0848 22.9978 35.985 22.9978H3.99177C2.892 22.9978 1.99219 22.098 1.99219 20.9982V3.00202C1.99219 1.90225 2.892 1.00244 3.99177 1.00244H35.985Z" fill="white"/>
<path id="Vector_3" d="M4.56186 7.16099H2.99219V12.6598H4.56186C5.39168 12.6598 5.99156 12.4599 6.52144 12.03C7.15131 11.5101 7.52123 10.7302 7.52123 9.92041C7.51124 8.29075 6.30149 7.16099 4.56186 7.16099ZM5.82159 11.3001C5.48166 11.6001 5.05175 11.74 4.3519 11.74H4.06196V8.10079H4.3519C5.04176 8.10079 5.46167 8.22077 5.82159 8.5407C6.19151 8.87063 6.41147 9.38052 6.41147 9.91041C6.41147 10.4403 6.19151 10.9702 5.82159 11.3001ZM8.01113 7.16099H9.08091V12.6598H8.01113V7.16099ZM11.7004 9.27055C11.0605 9.0306 10.8705 8.87063 10.8705 8.58069C10.8705 8.23077 11.2105 7.97082 11.6704 7.97082C11.9903 7.97082 12.2602 8.10079 12.5302 8.42073L13.0901 7.69088C12.6302 7.29096 12.0803 7.08101 11.4704 7.08101C10.5006 7.08101 9.75076 7.76086 9.75076 8.66067C9.75076 9.42051 10.1007 9.81043 11.1005 10.1704C11.5204 10.3203 11.7303 10.4203 11.8403 10.4803C12.0503 10.6203 12.1603 10.8202 12.1603 11.0502C12.1603 11.5001 11.8103 11.83 11.3304 11.83C10.8205 11.83 10.4106 11.5701 10.1607 11.1002L9.47082 11.77C9.96072 12.4999 10.5606 12.8198 11.3704 12.8198C12.4802 12.8198 13.27 12.08 13.27 11.0102C13.29 10.1204 12.9201 9.72045 11.7004 9.27055ZM13.6199 9.92041C13.6199 11.5401 14.8897 12.7898 16.5193 12.7898C16.9792 12.7898 17.3792 12.6998 17.8591 12.4699V11.2101C17.4291 11.64 17.0492 11.81 16.5693 11.81C15.4896 11.81 14.7197 11.0302 14.7197 9.91041C14.7197 8.85063 15.5096 8.02081 16.5193 8.02081C17.0292 8.02081 17.4192 8.20077 17.8591 8.64068V7.38094C17.3892 7.14099 16.9992 7.04102 16.5393 7.04102C14.9297 7.04102 13.6199 8.32075 13.6199 9.92041ZM26.3773 10.8602L24.9076 7.16099H23.7378L26.0673 12.7998H26.6472L29.0167 7.16099H27.857L26.3773 10.8602ZM29.5066 12.6598H32.546V11.73H30.5764V10.2503H32.476V9.32054H30.5764V8.10079H32.546V7.16099H29.5066V12.6598ZM36.7951 8.79065C36.7951 7.76086 36.0852 7.17099 34.8455 7.17099H33.2558V12.6698H34.3256V10.4603H34.4656L35.9452 12.6698H37.265L35.5353 10.3503C36.3452 10.1804 36.7951 9.63047 36.7951 8.79065ZM34.6355 9.70046H34.3256V8.03081H34.6555C35.3254 8.03081 35.6853 8.31075 35.6853 8.85064C35.6853 9.40052 35.3254 9.70046 34.6355 9.70046Z" fill="black"/>
<path id="Vector_4" d="M21.1482 12.8598C21.9253 12.8598 22.6707 12.5511 23.2203 12.0015C23.7698 11.4519 24.0785 10.7066 24.0785 9.92941C24.0785 9.15222 23.7698 8.40687 23.2203 7.85731C22.6707 7.30776 21.9253 6.99902 21.1482 6.99902C20.371 6.99902 19.6256 7.30776 19.0761 7.85731C18.5265 8.40687 18.2178 9.15222 18.2178 9.92941C18.2178 10.7066 18.5265 11.4519 19.0761 12.0015C19.6256 12.5511 20.371 12.8598 21.1482 12.8598Z" fill="url(#paint0_linear_6312_28316)"/>
<path id="Vector_5" opacity="0.65" d="M21.1482 12.8598C21.9253 12.8598 22.6707 12.5511 23.2203 12.0015C23.7698 11.4519 24.0785 10.7066 24.0785 9.92941C24.0785 9.15222 23.7698 8.40687 23.2203 7.85731C22.6707 7.30776 21.9253 6.99902 21.1482 6.99902C20.371 6.99902 19.6256 7.30776 19.0761 7.85731C18.5265 8.40687 18.2178 9.15222 18.2178 9.92941C18.2178 10.7066 18.5265 11.4519 19.0761 12.0015C19.6256 12.5511 20.371 12.8598 21.1482 12.8598Z" fill="url(#paint1_linear_6312_28316)"/>
<path id="Vector_6" d="M37.5548 7.50693C37.5548 7.40693 37.4848 7.35693 37.3748 7.35693H37.2148V7.83693H37.3348V7.64693L37.4748 7.83693H37.6148L37.4548 7.63693C37.5148 7.62693 37.5548 7.57693 37.5548 7.50693ZM37.3548 7.57693H37.3348V7.44693H37.3548C37.4148 7.44693 37.4448 7.46693 37.4448 7.50693C37.4448 7.55693 37.4148 7.57693 37.3548 7.57693Z" fill="black"/>
<path id="Vector_7" d="M37.3946 7.17725C37.1646 7.17725 36.9746 7.36725 36.9746 7.59725C36.9746 7.82725 37.1646 8.01725 37.3946 8.01725C37.6246 8.01725 37.8146 7.82725 37.8146 7.59725C37.8146 7.36725 37.6246 7.17725 37.3946 7.17725ZM37.3946 7.94725C37.2146 7.94725 37.0546 7.79725 37.0546 7.59725C37.0546 7.40725 37.2046 7.24725 37.3946 7.24725C37.5746 7.24725 37.7246 7.40725 37.7246 7.59725C37.7246 7.78725 37.5746 7.94725 37.3946 7.94725Z" fill="black"/>
<path id="Vector_8" d="M37.9839 12.9839C37.9839 12.9839 28.076 19.8714 9.96582 22.9978H35.9833C36.5109 22.9978 37.0171 22.7893 37.3916 22.4178C37.7662 22.0462 37.9787 21.5417 37.9829 21.0142L38.0069 17.9948L37.9839 12.9849V12.9839Z" fill="#F48120"/>
</g>
<defs>
<linearGradient id="paint0_linear_6312_28316" x1="22.6448" y1="12.2749" x2="20.6203" y2="9.10458" gradientUnits="userSpaceOnUse">
<stop stop-color="#F89F20"/>
<stop offset="0.25" stop-color="#F79A20"/>
<stop offset="0.533" stop-color="#F68D20"/>
<stop offset="0.62" stop-color="#F58720"/>
<stop offset="0.723" stop-color="#F48120"/>
<stop offset="1" stop-color="#F37521"/>
</linearGradient>
<linearGradient id="paint1_linear_6312_28316" x1="22.3259" y1="12.2319" x2="19.3665" y2="6.44714" gradientUnits="userSpaceOnUse">
<stop stop-color="#F58720"/>
<stop offset="0.359" stop-color="#E16F27"/>
<stop offset="0.703" stop-color="#D4602C"/>
<stop offset="0.982" stop-color="#D05B2E"/>
</linearGradient>
</defs>
</svg>
