<?xml version="1.0" encoding="utf-8"?>
<svg width="11" height="11" viewBox="0 0 11 11" fill="none" xmlns="http://www.w3.org/2000/svg">
<g id="dropdown arrow" clip-path="url(#clip0_5919_46805)">
<path id="Vector" d="M10.2079 2.46841C10.1482 2.4063 10.0763 2.35718 9.99678 2.32414C9.91722 2.29109 9.83169 2.27482 9.74555 2.27634H0.654446C0.476608 2.27634 0.323667 2.34037 0.195623 2.46841C0.133749 2.52699 0.0844845 2.59758 0.0508472 2.67586C0.0172099 2.75415 -9.23137e-05 2.83847 3.70403e-07 2.92368C3.70403e-07 3.10151 0.0640223 3.25446 0.192066 3.3825L4.74473 7.93161C4.87278 8.05965 5.02216 8.12368 5.2 8.12368C5.37784 8.12368 5.52722 8.05965 5.65527 7.93161L10.2079 3.37894C10.3324 3.25446 10.4 3.10151 10.4 2.92368C10.4 2.74584 10.3324 2.59645 10.2044 2.46841H10.2079Z" fill="black"/>
</g>
<defs>
<clipPath id="clip0_5919_46805">
<rect width="10.4" height="10.4" fill="white"/>
</clipPath>
</defs>
</svg>


