<?xml version="1.0" encoding="utf-8"?>
<svg width="32" height="32" viewBox="0 0 32 32" fill="none" xmlns="http://www.w3.org/2000/svg">
<g id="bi:x-lg">
<path id="Vector" d="M4.11453 5.88409L4.11455 5.8841L14.2317 15.9993L4.11455 26.1145L4.11453 26.1145C3.99834 26.2307 3.90618 26.3687 3.84329 26.5205C3.78041 26.6723 3.74805 26.835 3.74805 26.9993C3.74805 27.1636 3.78041 27.3263 3.84329 27.4781C3.90618 27.63 3.99834 27.7679 4.11453 27.8841C4.23072 28.0003 4.36866 28.0924 4.52047 28.1553C4.67228 28.2182 4.83499 28.2506 4.99931 28.2506C5.16363 28.2506 5.32634 28.2182 5.47815 28.1553C5.62996 28.0924 5.7679 28.0003 5.88409 27.8841L5.8841 27.8841L15.9993 17.7669L26.1145 27.8841L26.1145 27.8841C26.2307 28.0003 26.3687 28.0924 26.5205 28.1553C26.6723 28.2182 26.835 28.2506 26.9993 28.2506C27.1636 28.2506 27.3263 28.2182 27.4781 28.1553C27.63 28.0924 27.7679 28.0003 27.8841 27.8841C28.0003 27.7679 28.0924 27.63 28.1553 27.4781C28.2182 27.3263 28.2506 27.1636 28.2506 26.9993C28.2506 26.835 28.2182 26.6723 28.1553 26.5205C28.0924 26.3687 28.0003 26.2307 27.8841 26.1145L27.8841 26.1145L17.7669 15.9993L27.8841 5.8841L27.8841 5.88409C28.0003 5.7679 28.0924 5.62996 28.1553 5.47815C28.2182 5.32634 28.2506 5.16363 28.2506 4.99931C28.2506 4.83499 28.2182 4.67228 28.1553 4.52047C28.0924 4.36866 28.0003 4.23072 27.8841 4.11453C27.7679 3.99834 27.63 3.90618 27.4781 3.84329C27.3263 3.78041 27.1636 3.74805 26.9993 3.74805C26.835 3.74805 26.6723 3.78041 26.5205 3.84329C26.3687 3.90618 26.2307 3.99834 26.1145 4.11453L26.1145 4.11455L15.9993 14.2317L5.8841 4.11455L5.88409 4.11453C5.7679 3.99834 5.62996 3.90618 5.47815 3.84329C5.32634 3.78041 5.16363 3.74805 4.99931 3.74805C4.83499 3.74805 4.67228 3.78041 4.52047 3.84329C4.36866 3.90618 4.23072 3.99834 4.11453 4.11453C3.99834 4.23072 3.90618 4.36866 3.84329 4.52047C3.78041 4.67228 3.74805 4.83499 3.74805 4.99931C3.74805 5.16363 3.78041 5.32634 3.84329 5.47815C3.90618 5.62996 3.99834 5.7679 4.11453 5.88409Z" fill="black" stroke="black" stroke-width="0.5"/>
</g>
</svg>
