<svg width="119" height="35" viewBox="0 0 119 35" fill="none" xmlns="http://www.w3.org/2000/svg">
<g id="Frame">
<g id="Group">
<path id="Vector" d="M109.714 8.27327L94.8291 27.41C94.4662 27.891 95.3651 28.956 95.659 29.2824C96.5336 30.1636 97.5578 30.8847 98.6844 31.4126C100.085 32.0825 102.971 33.388 104.026 32.031L118.911 12.877C119.291 12.3961 118.392 11.331 118.081 11.0219C117.207 10.1406 116.183 9.41955 115.056 8.8917C113.656 8.20456 110.786 6.91618 109.714 8.27327Z" fill="white"/>
<path id="Vector_2" d="M21.2164 30.1583C18.5604 23.5641 15.0752 17.3303 10.8437 11.6057C10.5237 11.2995 10.1436 11.0622 9.72717 10.9086C9.31076 10.7549 8.86693 10.6881 8.42339 10.7124C6.99859 10.6684 5.57848 10.8958 4.23974 11.3824C3.46178 11.6229 -1.01576 13.5125 0.211679 15.1445C4.44644 20.8669 7.93193 27.1011 10.5844 33.6971C10.8956 34.4529 12.4515 34.556 13.0046 34.5904C14.4641 34.6478 15.9207 34.4202 17.292 33.9204C18.2948 33.5597 22.0807 32.2026 21.251 30.1583" fill="white"/>
<path id="Vector_3" d="M63.3122 22.6856C63.5369 16.5701 63.779 10.4546 64.0037 4.3391C64.1157 3.78312 64.0943 3.20874 63.9411 2.66254C63.7879 2.11636 63.5073 1.61374 63.122 1.19546C62.6484 0.867654 62.0996 0.66291 61.5259 0.599897C60.9521 0.536885 60.3716 0.617611 59.8374 0.834711C58.3748 1.35618 57.0836 2.26504 56.1032 3.463C55.0305 4.59948 54.3259 6.02974 54.0806 7.56864C53.8558 13.6841 53.6137 19.7997 53.389 25.9152C53.277 26.4711 53.2984 27.0455 53.4516 27.5917C53.6048 28.1379 53.8855 28.6405 54.2706 29.0588C54.7424 29.3836 55.2881 29.5867 55.8584 29.6497C56.4289 29.7127 57.0061 29.6336 57.538 29.4195C59.0081 28.9032 60.3063 27.9937 61.2896 26.7913C62.3622 25.6548 63.0668 24.2245 63.3122 22.6856Z" fill="white"/>
</g>
</g>
</svg>
