<?xml version="1.0" encoding="utf-8"?>
<svg width="33" height="33" viewBox="0 0 33 33" fill="none" xmlns="http://www.w3.org/2000/svg">
<g id="love-hand-drawn-heart-symbol-outline 1" clip-path="url(#clip0_6140_15567)">
<g id="Group">
<g id="Group_2">
<path id="Vector" d="M25.4149 2.18931C25.1477 2.18931 24.8771 2.20136 24.6109 2.2254C21.8616 2.47412 19.3548 4.14369 17.5287 6.93564C15.4102 3.81105 11.9085 1.80469 8.54027 1.80469C7.80007 1.80469 7.06666 1.90039 6.36076 2.08937C4.17933 2.67329 2.40072 4.29728 1.48148 6.54563C0.462751 9.03649 0.638073 11.9542 1.93918 14.1601C3.72605 17.1898 6.78967 19.039 9.75201 20.8271C11.2736 21.746 12.8473 22.6952 14.1969 23.7834C14.5989 24.107 15.1039 24.5288 15.5372 24.9884C14.9905 25.5272 13.9096 27.3178 13.8992 27.3393C13.5596 28.0538 13.0929 29.5645 13.4985 30.6947C13.6719 31.1768 13.9832 31.5261 14.4249 31.7328C14.6515 31.8386 14.8899 31.8926 15.1332 31.8926C16.1794 31.8926 17.1485 30.9011 17.7777 30.0697C18.9284 28.5476 19.1006 26.9499 18.2891 25.3188C19.6813 24.0595 21.196 22.8889 22.6614 21.756C25.1826 19.8076 27.7892 17.7923 29.8635 15.2594C30.8768 14.0217 34.0099 9.66887 31.7954 5.61364C30.6247 3.46938 28.2394 2.18931 25.4149 2.18931ZM16.353 28.3771C16.1425 28.7794 15.9299 29.0698 15.7085 29.2553C15.7531 28.6577 15.9809 28.0743 16.1271 27.7533C16.1682 27.6632 16.4372 27.2472 16.6307 26.9689C16.6914 27.4422 16.5998 27.9057 16.353 28.3771ZM13.8339 5.97095C14.4828 6.50563 15.0566 7.10961 15.5391 7.76488C15.5966 7.84302 15.6848 7.99033 15.7875 8.16084C16.3798 9.14752 17.0162 10.1109 17.7051 10.1109C18.0469 10.1109 18.3363 9.8706 18.5651 9.39617C20.0263 6.37018 22.358 4.56606 25.1304 4.31574C25.2916 4.30093 25.4549 4.29407 25.6164 4.29407C27.7375 4.29407 29.6027 5.53562 30.2582 7.38321C31.1218 9.81887 29.755 12.7052 26.0796 16.2068C24.5015 17.7106 22.7512 19.0628 21.0589 20.3708C19.7304 21.3968 18.3581 22.4573 17.0731 23.5868C15.9175 22.306 14.4018 21.233 13.1988 20.4346C12.4852 19.9606 11.7138 19.497 10.8973 19.0062C6.88275 16.5935 2.33315 13.8588 3.05041 8.767C3.46041 5.85563 5.62736 3.97445 8.57097 3.97445C8.78726 3.97445 9.00861 3.98471 9.22931 4.00599C10.848 4.15997 12.4831 4.85799 13.8339 5.97095Z" fill="black"/>
</g>
</g>
</g>
<defs>
<clipPath id="clip0_6140_15567">
<rect width="31.746" height="31.746" fill="white" transform="translate(0.730469 0.730469)"/>
</clipPath>
</defs>
</svg>
