<?xml version="1.0" encoding="utf-8"?>
<svg width="34" height="33" viewBox="0 0 34 33" fill="none" xmlns="http://www.w3.org/2000/svg">
<g id="Frame">
<path id="Vector" d="M17.2331 3.34867C21.5162 3.34867 22.0237 3.36471 23.7153 3.442C24.7324 3.45385 25.7397 3.64082 26.6933 3.99471C27.3903 4.25153 28.0208 4.6617 28.5381 5.19492C29.0713 5.71217 29.4814 6.34263 29.7383 7.03971C30.0921 7.99324 30.2791 9.00061 30.291 10.0176C30.3683 11.7093 30.3843 12.2168 30.3843 16.4999C30.3843 20.783 30.3683 21.2905 30.291 22.9822C30.2791 23.9992 30.0921 25.0066 29.7383 25.9601C29.4713 26.6521 29.0624 27.2805 28.538 27.8049C28.0136 28.3293 27.3852 28.7382 26.6933 29.0051C25.7397 29.359 24.7324 29.546 23.7153 29.5578C22.0237 29.6351 21.5162 29.6512 17.2331 29.6512C12.9499 29.6512 12.4424 29.6351 10.7508 29.5578C9.73376 29.546 8.72639 29.359 7.77286 29.0051C7.07579 28.7483 6.44533 28.3381 5.92807 27.8049C5.39486 27.2877 4.98468 26.6572 4.72786 25.9601C4.37397 25.0066 4.187 23.9992 4.17515 22.9822C4.09786 21.2905 4.08182 20.783 4.08182 16.4999C4.08182 12.2168 4.09786 11.7093 4.17515 10.0176C4.187 9.00061 4.37397 7.99324 4.72786 7.03971C4.98468 6.34263 5.39486 5.71217 5.92807 5.19492C6.44533 4.6617 7.07579 4.25153 7.77286 3.99471C8.72639 3.64082 9.73376 3.45385 10.7508 3.442C12.4424 3.36471 12.9499 3.34867 17.2331 3.34867ZM17.2331 0.458252C12.877 0.458252 12.3301 0.47721 10.6195 0.554502C9.28892 0.582 7.97251 0.833944 6.72578 1.29971C5.65908 1.71267 4.69053 2.34415 3.88234 3.1536C3.07414 3.96305 2.44417 4.93258 2.03286 5.99992C1.5671 7.24665 1.31516 8.56306 1.28766 9.89367C1.21037 11.597 1.19141 12.1439 1.19141 16.4999C1.19141 20.856 1.21037 21.4028 1.28766 23.1135C1.31516 24.4441 1.5671 25.7605 2.03286 27.0072C2.44582 28.0739 3.0773 29.0425 3.88675 29.8507C4.6962 30.6588 5.66573 31.2888 6.73307 31.7001C7.9798 32.1659 9.29621 32.4178 10.6268 32.4453C12.3301 32.5226 12.877 32.5416 17.2331 32.5416C21.5891 32.5416 22.136 32.5226 23.8466 32.4453C25.1772 32.4178 26.4936 32.1659 27.7403 31.7001C28.807 31.2872 29.7756 30.6557 30.5838 29.8462C31.392 29.0368 32.022 28.0673 32.4333 26.9999C32.899 25.7532 33.151 24.4368 33.1785 23.1062C33.2558 21.4028 33.2747 20.856 33.2747 16.4999C33.2747 12.1439 33.2558 11.597 33.1785 9.88638C33.151 8.55577 32.899 7.23935 32.4333 5.99263C32.0203 4.92592 31.3888 3.95738 30.5794 3.14918C29.7699 2.34099 28.8004 1.71101 27.7331 1.29971C26.4863 0.833944 25.1699 0.582 23.8393 0.554502C22.136 0.47721 21.5891 0.458252 17.2331 0.458252Z" fill="#FFB800"/>
<path id="Vector_2" d="M17.2322 8.26172C15.6029 8.26172 14.0101 8.74488 12.6554 9.65009C11.3006 10.5553 10.2448 11.8419 9.62123 13.3472C8.99771 14.8526 8.83457 16.509 9.15244 18.107C9.47031 19.7051 10.2549 21.173 11.407 22.3251C12.5591 23.4772 14.027 24.2618 15.6251 24.5797C17.2231 24.8975 18.8795 24.7344 20.3848 24.1109C21.8902 23.4874 23.1768 22.4315 24.082 21.0767C24.9872 19.7219 25.4704 18.1292 25.4704 16.4998C25.4704 14.315 24.6024 12.2196 23.0575 10.6746C21.5125 9.12966 19.4171 8.26172 17.2322 8.26172ZM17.2322 21.8476C16.1746 21.8476 15.1406 21.5339 14.2612 20.9463C13.3818 20.3587 12.6964 19.5235 12.2916 18.5463C11.8869 17.5692 11.781 16.4939 11.9873 15.4566C12.1936 14.4192 12.703 13.4663 13.4508 12.7184C14.1987 11.9706 15.1516 11.4612 16.189 11.2549C17.2263 11.0485 18.3016 11.1545 19.2787 11.5592C20.2559 11.964 21.0911 12.6494 21.6787 13.5288C22.2663 14.4082 22.58 15.4422 22.58 16.4998C22.58 17.9181 22.0165 19.2784 21.0136 20.2812C20.0108 21.2841 18.6505 21.8476 17.2322 21.8476Z" fill="#FFB800"/>
<path id="Vector_3" d="M25.7961 9.86147C26.8592 9.86147 27.7211 8.99962 27.7211 7.93647C27.7211 6.87333 26.8592 6.01147 25.7961 6.01147C24.7329 6.01147 23.8711 6.87333 23.8711 7.93647C23.8711 8.99962 24.7329 9.86147 25.7961 9.86147Z" fill="#FFB800"/>
</g>
</svg>
