<svg width="35" height="32" viewBox="0 0 35 32" fill="none" xmlns="http://www.w3.org/2000/svg">
<path d="M5.83333 32H2.33333C1.0465 32 0 30.9749 0 29.7143V14.8572C0 13.5966 1.0465 12.5715 2.33333 12.5715H5.83333C7.12017 12.5715 8.16667 13.5966 8.16667 14.8572V29.7143C8.16667 30.9749 7.12017 32 5.83333 32ZM2.33333 14.8572V29.7143H5.83508L5.83333 14.8572H2.33333ZM25.8035 32H14C12.07 32 10.5 30.462 10.5 28.5714V13.7143C10.5 13.4112 10.6231 13.1206 10.8418 12.9063L23.6752 0.334928C24.131 -0.111643 24.8692 -0.111643 25.3248 0.334928L26.6916 1.67378C28.9663 3.90206 28.9663 7.52691 26.6916 9.75519L24.983 11.4286H31.5C33.43 11.4286 35 12.9666 35 14.8572V15.6592C35 16.7669 34.8189 17.8617 34.461 18.912L31.337 28.0934C30.5419 30.4297 28.3179 32 25.8035 32ZM12.8333 14.1875V28.5714C12.8333 29.2014 13.3569 29.7143 14 29.7143H25.8035C27.312 29.7143 28.6466 28.7723 29.1235 27.37L32.2475 18.1886C32.5255 17.3717 32.667 16.5206 32.667 15.6589V14.8572C32.667 14.2272 32.1434 13.7143 31.5003 13.7143H22.1667C21.695 13.7143 21.2695 13.4358 21.089 13.0089C20.9084 12.5815 21.0082 12.0903 21.3418 11.7635L25.0419 8.13891C26.4069 6.80177 26.4069 4.62663 25.0419 3.28949L24.5 2.75892L12.8333 14.1875Z" fill="#131313"/>
</svg>
