<svg width="48" height="30" viewBox="0 0 48 30" fill="none" xmlns="http://www.w3.org/2000/svg">
<g id="logos:visa">
<path id="Vector" d="M24.7386 12.6653C24.714 14.469 26.4624 15.4755 27.7795 16.074C29.1326 16.688 29.5871 17.0817 29.5818 17.6309C29.5717 18.4712 28.5024 18.842 27.5018 18.8565C25.7561 18.8817 24.7411 18.417 23.9342 18.0655L23.3053 20.8094C24.1149 21.1573 25.614 21.4607 27.1686 21.474C30.8177 21.474 33.205 19.7943 33.218 17.1901C33.2322 13.885 28.3153 13.702 28.3489 12.2247C28.3605 11.7768 28.8189 11.2988 29.8233 11.1772C30.3205 11.1158 31.693 11.0688 33.249 11.737L33.8598 9.08218C33.0229 8.79806 31.9474 8.526 30.6084 8.526C27.1738 8.526 24.758 10.2285 24.7386 12.6653ZM39.7283 8.75467C39.0619 8.75467 38.5004 9.11711 38.2498 9.67329L33.0372 21.279H36.6837L37.4093 19.409H41.8652L42.2861 21.279H45.5L42.6954 8.75467H39.7283ZM40.2384 12.138L41.2907 16.841H38.4087L40.2384 12.138ZM20.3175 8.75483L17.4432 21.2788H20.9179L23.7909 8.75452H20.3175V8.75483ZM15.1771 8.75452L11.5604 17.2792L10.0974 10.031C9.92573 9.22189 9.24781 8.75467 8.49497 8.75467H2.58281L2.5 9.11836C3.71374 9.36395 5.09277 9.76006 5.92824 10.1839C6.43954 10.4428 6.58534 10.6691 6.7533 11.2843L9.52429 21.279H13.1962L18.8259 8.75467H15.1771" fill="#0085FF"/>
</g>
</svg>
