<?xml version="1.0" encoding="utf-8"?>
<svg width="83" height="72" viewBox="0 0 83 72" fill="none" xmlns="http://www.w3.org/2000/svg">
<g id="&#203;&#156;&#195;&#160;&#195;&#176;_2">
<path id="Vector" d="M25.823 14.8266C25.8521 15.1501 25.9407 15.4651 26.0842 15.7549C26.2043 15.9981 26.3547 16.2243 26.5314 16.4279C26.8204 16.7561 27.1517 17.0423 27.5161 17.2787C27.829 17.4846 28.1552 17.6682 28.4927 17.8281C29.1123 18.1175 29.7517 18.3601 30.4056 18.5542C30.9925 18.7332 31.6015 18.8883 32.2668 19.0315C33.4465 19.2751 34.6377 19.4557 35.8357 19.5727C36.9158 19.6824 38.0057 19.7516 39.1678 19.7844C39.6244 19.7976 40.085 19.8047 40.537 19.8047C42.0236 19.807 43.5093 19.7301 44.9881 19.5744C45.778 19.4879 46.5876 19.3716 47.399 19.2278C48.1551 19.0882 48.8391 18.9557 49.4207 18.7851C50.7146 18.4042 51.9579 17.8616 53.1227 17.1695C53.1227 17.1695 48.5564 17.5066 48.2371 17.534C48.044 17.5543 47.8451 17.5686 47.6345 17.5841C47.4915 17.5943 47.3466 17.605 47.2053 17.6175C46.4492 17.6671 45.6605 17.7058 44.8666 17.7315C44.1238 17.75 43.4538 17.7589 42.8181 17.7589C41.5571 17.7589 40.3927 17.7237 39.2597 17.6527C38.1482 17.5811 37.1106 17.4779 36.0875 17.3365C34.9709 17.1865 33.8625 16.9784 32.7665 16.7131C32.1685 16.5687 31.6253 16.4148 31.1047 16.2405C30.5656 16.0656 30.0394 15.851 29.5303 15.5986C29.296 15.4825 29.0697 15.3503 28.8527 15.203C28.6765 15.0862 28.5163 14.9457 28.3763 14.7854C28.3147 14.7114 28.2967 14.5885 28.3345 14.536C28.4585 14.3826 28.6037 14.2485 28.7655 14.1381C28.9858 13.9841 29.2172 13.8475 29.4576 13.7294C30.0025 13.4647 30.5664 13.2433 31.1443 13.0671C32.2174 12.7265 33.4243 12.4562 34.9417 12.2158C37.2163 11.8698 39.5131 11.7005 41.8125 11.7092C42.2126 11.7092 42.6209 11.714 43.0275 11.7229C44.449 11.7516 45.8164 11.8387 47.0913 11.9831C47.7811 12.0606 48.4529 12.1549 49.0845 12.2635L49.5766 12.3518L50.1 12.455C50.4887 12.5212 50.8812 12.5611 51.2749 12.5743C51.3831 12.5773 51.4913 12.5797 51.5995 12.5797C52.3771 12.5797 53.0535 12.4789 53.6805 12.2712C54.1169 12.1293 54.5271 11.9138 54.8944 11.6335C55.2891 11.3303 55.6133 10.9411 55.8436 10.4939C55.9545 10.2777 56.0439 10.0507 56.1106 9.81616L56.1204 9.78155C56.1304 9.7541 56.1378 9.72573 56.1425 9.69683L56.1734 9.56438L56.192 9.46892L56.2083 9.37943L56.2211 9.28636C56.2304 9.22312 56.2373 9.15988 56.2414 9.10141C56.2795 8.62974 56.2318 8.15492 56.1007 7.70115C55.8744 6.91421 55.4231 6.19289 54.7583 5.5563C54.2031 5.03759 53.5716 4.61195 52.8872 4.29505C52.2522 3.99618 51.5897 3.76294 50.9097 3.5988C49.7464 3.31362 48.4831 3.16983 47.0465 3.15909H46.9552C45.7836 3.16071 44.6134 3.24122 43.4521 3.40013C42.8908 3.47649 42.326 3.56718 41.7712 3.67039L40.9714 3.82492C40.7388 3.87086 40.5143 3.91202 40.2904 3.952L40.2054 3.96751C38.3884 4.28491 36.8477 4.43884 35.4943 4.43884C35.2099 4.43884 34.9307 4.43168 34.6643 4.41796C33.9129 4.38665 33.1676 4.26653 32.4431 4.05999C31.7777 3.85893 31.2379 3.563 30.8797 3.20205C30.5505 2.8751 30.216 2.27371 30.1817 1.84952C30.1148 1.02678 30.4725 0 30.4725 0C30.2795 0.204774 30.1054 0.427471 29.9525 0.665229C29.7052 1.07419 29.565 1.5417 29.5454 2.02254C29.535 2.33818 29.5845 2.65289 29.6914 2.94908C29.8137 3.28003 29.9967 3.58383 30.2306 3.84401C30.6743 4.34815 31.3112 4.75684 32.1243 5.05753C32.8182 5.31646 33.6197 5.49247 34.5753 5.59449C35.2372 5.66276 35.9021 5.69601 36.5674 5.69412C37.8552 5.68808 39.1413 5.59941 40.4183 5.42863L40.4939 5.41848C40.7341 5.38627 40.9767 5.35345 41.214 5.31766L42.0085 5.20191C42.5412 5.12793 43.0851 5.06648 43.6236 5.01875C44.5135 4.94119 45.3133 4.9036 46.0694 4.9036C46.3864 4.9036 46.701 4.91017 47.004 4.92389C48.2999 4.98355 49.4248 5.15239 50.4403 5.44354C50.9945 5.60098 51.5331 5.81131 52.0491 6.07178C52.5406 6.31686 52.9919 6.63892 53.3868 7.02637C53.7701 7.41537 54.0266 7.84433 54.1354 8.26853C54.2459 8.67018 54.1972 9.10037 53.9998 9.46535C53.9081 9.63162 53.7808 9.77441 53.6276 9.88298C53.4446 10.0111 53.2425 10.1076 53.0291 10.1688C52.6168 10.2836 52.1906 10.3377 51.7635 10.3292C51.6379 10.3292 51.5082 10.3251 51.3773 10.3173C51.0859 10.3009 50.7958 10.2653 50.5089 10.2105L50.0076 10.1001L49.4841 9.99395C48.81 9.86269 48.0981 9.74635 47.3681 9.64791C46.0275 9.46594 44.5915 9.34244 43.0984 9.2792C42.4395 9.25593 41.7787 9.2434 41.1355 9.2434C38.943 9.23772 36.7528 9.38763 34.5805 9.69206C33.9053 9.78812 33.2184 9.91221 32.4809 10.0721C31.7248 10.2374 31.0466 10.4158 30.4068 10.618C29.7026 10.8361 29.0166 11.1118 28.3554 11.4425C28.0004 11.622 27.6593 11.8293 27.3352 12.0624C26.956 12.3322 26.6207 12.6619 26.3418 13.0391C26.168 13.2797 26.0322 13.5469 25.9393 13.8308C25.9136 13.9091 25.8921 13.9888 25.8748 14.0694L25.8527 14.1756L25.8492 14.1941C25.8422 14.2431 25.8352 14.2926 25.8294 14.3451L25.823 14.4137C25.8189 14.4572 25.8184 14.4734 25.8184 14.4805V14.5473V14.6338V14.7054L25.823 14.8266Z" fill="black"/>
<path id="Vector_2" d="M65.5198 17.8864V17.8214C65.5158 17.7588 65.5082 17.6967 65.4995 17.6341L65.4902 17.5595C65.4804 17.4734 65.4658 17.3879 65.4465 17.3035L65.3884 17.0649C65.3721 17.0052 65.3523 16.9456 65.3302 16.8823L65.3134 16.8316C65.2723 16.7011 65.2231 16.5733 65.1662 16.4492L65.1197 16.3436C65.0452 16.1932 64.9655 16.0483 64.8824 15.9128L64.8126 15.8072C64.7479 15.7035 64.6772 15.6039 64.6009 15.5089L64.4613 15.3341C64.4235 15.287 64.3781 15.2387 64.3333 15.1909L64.2827 15.1366L64.1082 14.9576L63.8669 14.7363C63.8425 14.7102 63.8151 14.6872 63.7854 14.6677L63.6034 14.5233C63.4692 14.4218 63.3292 14.3288 63.184 14.2447C62.5778 13.888 61.8937 13.6937 61.1949 13.6797C61.1553 13.6797 61.1152 13.6797 61.0785 13.6797C60.4617 13.6838 59.8508 13.8028 59.2755 14.0311C58.7115 14.2542 58.1769 14.5488 57.6842 14.9081C57.4515 15.0799 57.2189 15.2661 56.995 15.466C56.8757 15.5716 56.7623 15.6784 56.6675 15.7732L56.5105 15.9313L56.3493 16.1031L56.1702 16.3048L55.9166 16.6133L55.7805 16.7976C55.598 17.0459 55.4299 17.3048 55.2768 17.5732C54.9797 18.0949 54.728 18.6426 54.5248 19.2097C54.3363 19.73 54.17 20.2693 54.017 20.8546C53.9525 21.0933 53.8833 21.3671 53.8117 21.6648L53.7896 21.7573L53.6186 22.4076C53.3439 23.3895 52.9858 24.3447 52.5484 25.2624C52.4845 25.4044 52.4129 25.5422 52.3379 25.6884C52.2948 25.7719 52.2518 25.8549 52.2099 25.939L52.1174 26.1072C52.0244 26.2773 51.9366 26.4384 51.8429 26.5929L51.74 26.7617C51.6393 26.927 51.544 27.0827 51.4381 27.239L51.3578 27.3583C51.3148 27.424 51.2712 27.4896 51.2305 27.5493L51.0071 27.8607C50.4244 28.6649 49.7655 29.4079 49.0401 30.0789C48.6808 30.4093 48.3041 30.7192 47.9117 31.0073C47.771 31.1147 47.6267 31.2131 47.4738 31.3181L47.3249 31.4207C47.2667 31.4613 47.2045 31.4983 47.1434 31.5359C47.1038 31.5603 47.0643 31.5848 47.0271 31.6081L46.9689 31.6456C46.8886 31.6958 46.8124 31.7435 46.7299 31.7876L46.4187 31.963C46.3559 31.9971 46.2919 32.0287 46.2285 32.0603L46.1011 32.1241C45.9662 32.1957 45.8278 32.2584 45.6812 32.3246L45.4764 32.4183L45.1536 32.5489C45.0315 32.599 44.9332 32.636 44.8384 32.6682L44.5139 32.7828L44.0241 32.932L43.8607 32.9719L43.5315 33.0555L43.0389 33.1503L42.8754 33.1742L42.5427 33.2243L42.0565 33.2756C42.0326 33.2756 42.0024 33.2792 41.9716 33.2804H41.9024L41.4778 33.2995H41.0241C40.9811 33.2995 40.9392 33.2995 40.9031 33.2995L40.5402 33.278C40.4407 33.2732 40.3471 33.2678 40.2523 33.2547C40.1941 33.2476 40.136 33.241 40.0778 33.235C39.915 33.2165 39.7614 33.1992 39.6038 33.1676L39.2845 33.1133L38.9698 33.0429C38.1488 32.8546 37.3514 32.5706 36.5933 32.1963C35.862 31.8311 35.1658 31.396 34.514 30.8969C33.893 30.4202 33.3096 29.8942 32.7691 29.3236C32.2655 28.7895 31.7978 28.221 31.3691 27.6221C31.2104 27.4109 31.0632 27.1895 30.9207 26.9753C30.8759 26.9085 30.8317 26.8417 30.7869 26.7755C30.7272 26.6756 30.6669 26.5776 30.606 26.4813C30.4897 26.294 30.3798 26.1168 30.2774 25.9294C29.9575 25.3788 29.2567 24.25 29.0141 23.7458L27.3379 20.1906L27.3961 20.9936C27.4705 21.7555 27.587 22.5124 27.745 23.2608C27.9944 24.4338 28.3514 25.5801 28.8111 26.6842C28.9153 26.9497 29.0345 27.205 29.1601 27.4759L29.2514 27.6728L29.3678 27.9007C29.5004 28.1614 29.6371 28.4299 29.7923 28.696C30.2016 29.4216 30.6622 30.1155 31.1702 30.7722C31.7303 31.4943 32.3503 32.1652 33.0233 32.7774C33.7539 33.4443 34.5497 34.0319 35.3981 34.5309C36.3109 35.0673 37.2839 35.488 38.2957 35.7838L38.6866 35.8954L39.0786 35.9842C39.2967 36.0385 39.5165 36.0743 39.7294 36.1095L39.8894 36.1358C40.0307 36.1626 40.1697 36.1776 40.3041 36.1919L40.7286 36.2372C40.8229 36.2456 40.9171 36.2503 41.0119 36.2551L41.4941 36.2796L42.0501 36.273C42.0931 36.273 42.1373 36.273 42.1868 36.2694L42.5264 36.2491C42.634 36.2426 42.7416 36.236 42.8574 36.2259L43.2779 36.177L43.4873 36.1501L43.7101 36.1119L44.1271 36.0379L44.1463 36.0338C44.2277 36.0141 44.3103 35.9962 44.3929 35.9777C44.5866 35.9347 44.7872 35.89 44.9873 35.8273C45.5526 35.6697 46.1064 35.472 46.6449 35.2355C47.1833 34.9967 47.7054 34.721 48.2078 34.4104C49.2161 33.7899 50.1476 33.0467 50.9821 32.1969C51.8076 31.3558 52.5481 30.4314 53.1923 29.4376L53.429 29.0683C53.4808 28.9841 53.5308 28.8994 53.5808 28.8141L53.6512 28.6948C53.7716 28.4979 53.8838 28.2956 53.9874 28.0982L54.0833 27.9222C54.2229 27.6602 54.359 27.3852 54.4794 27.1465L54.4847 27.1352C54.5254 27.0469 54.5667 26.9586 54.6085 26.8703C54.6888 26.6997 54.772 26.5237 54.8412 26.3477C55.2957 25.2877 55.6757 24.1957 55.9783 23.08L56.1818 22.268C56.2511 21.9822 56.3104 21.7513 56.3732 21.521C56.4973 21.0509 56.65 20.5892 56.8304 20.1387C56.9944 19.7238 57.1953 19.3254 57.4306 18.9484C57.5453 18.7722 57.6696 18.6027 57.8028 18.4407L57.9005 18.3214L58.0791 18.1281L58.2257 17.9813L58.3327 17.8805L58.4519 17.7743C58.524 17.7116 58.6078 17.6394 58.6939 17.572C58.8538 17.4441 59.02 17.3247 59.1917 17.2141C59.5066 17.0075 59.8451 16.8418 60.1997 16.7206C60.4616 16.6324 60.7354 16.5865 61.0111 16.5846C61.0419 16.5846 61.0692 16.5846 61.1012 16.5846C61.342 16.5927 61.5771 16.6609 61.7864 16.7833L61.7992 16.7905C61.8419 16.8147 61.8835 16.8412 61.9236 16.8698L61.9481 16.8865L62.0248 16.9462L62.2255 17.1252C62.2476 17.1496 62.2697 17.1735 62.2936 17.1968C62.3064 17.2105 62.3197 17.223 62.3331 17.2355C62.3402 17.2416 62.3468 17.2482 62.3529 17.2552L62.4297 17.3441C62.5835 17.5188 62.6979 17.7262 62.7647 17.9515C62.8202 18.1625 62.8273 18.3839 62.7856 18.5982C62.728 18.8684 62.6299 19.1278 62.4948 19.3672C62.1835 19.9028 61.7757 20.3728 61.2932 20.752C61.0656 20.9362 60.8225 21.0993 60.5667 21.2394L60.3771 21.3403L60.1538 21.4465L59.7076 21.6559C59.1063 21.9375 58.474 22.2483 57.9308 22.6779C57.8069 22.7775 57.6929 22.8801 57.5818 22.9798L57.5481 23.0096L57.4591 23.1051C57.3777 23.1916 57.2986 23.2763 57.2264 23.3622L57.2189 23.3706L56.9426 23.7363C56.7216 24.0981 56.5567 24.493 56.454 24.9068C56.1167 26.3107 56.4936 27.4091 56.4936 27.4091L56.803 26.6889C56.8304 26.6329 56.8612 26.5732 56.8879 26.51C56.9844 26.2976 57.0911 26.0903 57.2078 25.8889L57.2136 25.8787C57.3991 25.5452 57.6167 25.2315 57.8633 24.9426C58.1425 24.6177 58.4802 24.3511 58.8579 24.1575C59.2586 23.9505 59.7472 23.793 60.4091 23.605L60.8977 23.4595L61.1478 23.3831C61.2193 23.3604 61.2862 23.3365 61.3542 23.3121L61.4444 23.2805C62.2642 22.9669 63.0201 22.4996 63.6732 21.9023C64.0394 21.5705 64.3669 21.1963 64.6491 20.7872C64.9726 20.3217 65.2164 19.8032 65.3703 19.2539C65.4541 18.95 65.5043 18.6374 65.5198 18.322C65.5286 18.1769 65.5286 18.0315 65.5198 17.8864Z" fill="black"/>
<path id="Vector_3" d="M19.8426 56.624C19.9503 56.8573 20.0458 57.0963 20.1288 57.34C20.2125 57.5882 20.3195 57.9282 20.4498 58.3602C20.7304 59.2589 20.9471 60.1774 21.0983 61.1082C21.2178 61.9037 21.2015 62.5998 21.0495 63.1964C20.8974 63.7933 20.5706 64.328 20.1131 64.7285C19.6408 65.1525 18.9667 65.5035 18.0908 65.7815C17.0124 66.1236 16.1594 66.2662 15.5316 66.2093C14.9038 66.1524 14.3563 65.8668 13.8891 65.3526C13.6446 65.0844 13.4266 64.792 13.2383 64.4797C13.0223 64.1321 12.7844 63.649 12.5246 63.0305C12.2648 62.412 11.974 61.6145 11.6522 60.6381C11.33 59.6608 10.9397 58.4119 10.4814 56.8913C9.9928 55.2689 9.62036 53.9583 9.36406 52.9596C9.10776 51.9609 8.92551 51.1572 8.81733 50.5487C8.7076 49.9401 8.65913 49.4728 8.67193 49.1466C8.68228 48.8424 8.71103 48.5391 8.75801 48.2386C8.86735 47.5624 9.14808 47.0238 9.6002 46.6229C10.0523 46.222 10.8084 45.8541 11.8685 45.5192C12.8286 45.2149 13.59 45.0777 14.1526 45.1075C14.7152 45.1373 15.1939 45.3163 15.5886 45.6445C16.4389 46.3206 17.2104 47.8082 17.9029 50.1072L18.1803 51.0278C18.2452 51.2496 18.295 51.4759 18.3292 51.7049L15.3763 52.644C15.3356 52.4489 15.2873 52.2562 15.2297 52.0659L14.9878 51.2622C14.8376 50.75 14.6583 50.2472 14.451 49.7564C14.2699 49.3403 14.1088 49.0506 13.9676 48.8871C13.8501 48.754 13.7007 48.6547 13.5343 48.5989C13.3819 48.5524 13.1456 48.5798 12.8253 48.6813C12.4884 48.7886 12.2627 48.9123 12.1483 49.0523C12.0339 49.1924 11.9794 49.3942 11.9849 49.6579C11.988 49.8666 12.0045 50.0749 12.0343 50.2814C12.0657 50.5089 12.134 50.8422 12.239 51.2813C12.3441 51.7204 12.5017 52.3059 12.7119 53.0378C12.9217 53.766 13.2039 54.7178 13.5587 55.8932C13.9174 57.0864 14.2133 58.0529 14.4463 58.7927C14.6793 59.5325 14.8746 60.119 15.032 60.5522C15.1902 60.9847 15.3228 61.3129 15.4252 61.5354C15.5149 61.7326 15.6185 61.9228 15.7352 62.1046C15.8752 62.3253 16.0355 62.4589 16.2162 62.5055C16.3969 62.552 16.6807 62.514 17.0677 62.3915C17.6237 62.2153 17.8792 61.8693 17.8343 61.3534C17.807 60.9333 17.7418 60.5166 17.6394 60.1089C17.5289 59.6519 17.3618 59.0517 17.1381 58.3083L17.0217 57.9193C16.984 57.7983 16.9391 57.6797 16.8874 57.5643L19.8426 56.624Z" fill="black"/>
<path id="Vector_4" d="M31.5941 60.9213C31.4083 61.5994 31.0593 62.1099 30.5471 62.4528C30.0349 62.7956 29.2489 63.0651 28.1892 63.2612C27.1132 63.4601 26.2722 63.4917 25.6661 63.3561C25.0601 63.2204 24.5634 62.8668 24.176 62.2953C23.9723 61.9987 23.7915 61.6863 23.6351 61.361C23.4672 61.0157 23.2927 60.5384 23.1116 59.9291C22.9306 59.3197 22.7402 58.5147 22.5405 57.514C22.3373 56.5129 22.0965 55.2202 21.8181 53.636C21.5397 52.0517 21.3255 50.7591 21.1754 49.7579C21.0265 48.7568 20.9319 47.9381 20.8916 47.3017C20.8512 46.6653 20.8512 46.1597 20.8916 45.7851C20.9309 45.4206 20.9929 45.0591 21.0771 44.7028C21.2628 44.0266 21.6077 43.5171 22.1118 43.1743C22.6159 42.8314 23.4149 42.5593 24.5087 42.3581C25.5669 42.1624 26.3949 42.1332 26.9928 42.2704C27.5907 42.4076 28.0927 42.7592 28.4986 43.3252C28.6988 43.629 28.88 43.9455 29.0413 44.2726C29.2084 44.6091 29.3771 45.0832 29.5473 45.695C29.7175 46.3067 29.9077 47.108 30.1179 48.0987C30.3281 49.0891 30.5725 50.3764 30.8513 51.9607C31.1301 53.5449 31.3405 54.8431 31.4824 55.8554C31.6251 56.8676 31.7207 57.6908 31.7691 58.3248C31.8176 58.9588 31.8221 59.4681 31.7825 59.8527C31.7468 60.2134 31.6838 60.5706 31.5941 60.9213ZM28.5231 58.8981C28.5445 58.6907 28.5527 58.482 28.5475 58.2735C28.5325 57.9338 28.4999 57.5953 28.4498 57.2592C28.3881 56.8118 28.2962 56.2132 28.1741 55.4634C28.052 54.7137 27.8808 53.7159 27.6605 52.4702C27.4383 51.2065 27.2555 50.1923 27.1121 49.4274C26.9686 48.6626 26.8455 48.0649 26.7427 47.6346C26.6404 47.2038 26.5564 46.8795 26.4909 46.6615C26.4364 46.4703 26.3633 46.2852 26.2728 46.109C26.1592 45.8728 26.0151 45.7157 25.8406 45.6377C25.6661 45.5597 25.4141 45.5512 25.0845 45.612C24.7355 45.6765 24.4969 45.7713 24.3685 45.8966C24.2402 46.0219 24.1628 46.2152 24.1365 46.4765C24.115 46.6796 24.106 46.8839 24.1097 47.0881C24.112 47.3084 24.1396 47.6435 24.1923 48.0934C24.245 48.5432 24.3342 49.1516 24.4598 49.9184C24.5855 50.6857 24.76 51.7011 24.9833 52.9648C25.2024 54.2113 25.3831 55.2118 25.5254 55.9663C25.6677 56.7209 25.7898 57.3139 25.8918 57.7455C25.9946 58.1774 26.083 58.5012 26.157 58.7168C26.2231 58.9142 26.3018 59.1069 26.3926 59.2937C26.506 59.5323 26.645 59.6839 26.8096 59.7537C26.9742 59.8235 27.2301 59.8277 27.5774 59.7632C27.9073 59.7024 28.1417 59.6085 28.2805 59.4816C28.4194 59.3547 28.5002 59.1602 28.5231 58.8981Z" fill="black"/>
<path id="Vector_5" d="M34.2276 61.9173L33.2383 41.4038L40.6621 41.0273L40.8256 44.4143L36.6513 44.6255L36.9112 50.019L41.0041 49.8102L41.1623 53.0916L37.0671 53.2998L37.4743 61.7544L34.2276 61.9173Z" fill="black"/>
<path id="Vector_6" d="M43.0918 61.5894L44.6953 41.1152L52.1041 41.7256L51.8394 45.1066L47.6733 44.7636L47.2522 50.1456L51.3387 50.4821L51.0827 53.7546L46.9945 53.4181L46.3338 61.8561L43.0918 61.5894Z" fill="black"/>
<path id="Vector_7" d="M51.9883 62.4493L55.8852 42.3027L63.2794 43.8092L62.6396 47.1359L58.4368 46.2798L57.4782 51.2317L61.6037 52.0718L60.9907 55.2386L56.864 54.3968L55.8543 59.613L60.0316 60.4638L59.3563 63.9504L51.9883 62.4493Z" fill="black"/>
<path id="Vector_8" d="M61.1621 64.4277L67.1319 44.8223L74.3301 47.1282L73.3413 50.3654L69.2514 49.0529L67.7851 53.8747L71.7983 55.1611L70.8595 58.2432L66.8463 56.9569L65.301 62.0329L69.3653 63.3353L68.3324 66.7283L61.1621 64.4277Z" fill="black"/>
<path id="Vector_9" d="M81.5768 45.1363L80.7009 44.8308C80.1303 44.6303 79.2951 44.3255 78.2249 43.9747L77.3821 43.6925C77.0872 43.5934 76.7801 43.4878 76.4515 43.3941C75.8018 43.1979 75.105 42.9705 74.3577 42.7379L71.9625 42.047C71.1128 41.8286 70.2264 41.5774 69.2946 41.3418L67.8656 40.9934L67.131 40.8144L66.3795 40.6485L64.8394 40.3072C64.3159 40.1915 63.7837 40.096 63.2457 39.9875C62.7077 39.8789 62.1621 39.7643 61.6055 39.6736L59.9188 39.3795C59.6356 39.327 59.3488 39.2852 59.0609 39.2435L58.1931 39.111C57.6115 39.0239 57.0264 38.9267 56.432 38.8581C54.0613 38.5281 51.5992 38.3038 49.0971 38.1153L47.2155 38.0037L46.7421 37.9769L46.2675 37.9613L45.3171 37.9273C44.6826 37.9041 44.0474 37.876 43.4106 37.876L41.511 37.8557C40.2285 37.876 38.9309 37.8665 37.6757 37.9279L36.7294 37.9625L36.2566 37.9781L35.7837 38.0055L33.8975 38.1141C31.3965 38.3044 28.9327 38.5263 26.5626 38.8581C25.9682 38.9267 25.3831 39.0239 24.8015 39.111L23.9343 39.2435C23.6434 39.2858 23.359 39.3276 23.0758 39.3801L21.3891 39.6736C20.8324 39.7643 20.2892 39.8854 19.7495 39.9875C19.2097 40.0895 18.6769 40.1921 18.1558 40.3072L16.6157 40.6485L15.8642 40.8144L15.1296 40.9934L13.7029 41.3448C12.7723 41.5804 11.8841 41.831 11.035 42.05L8.63926 42.7403C7.89187 42.9717 7.19509 43.1997 6.54541 43.3965C6.2197 43.4932 5.91202 43.5988 5.61481 43.6948L4.7732 43.9759C3.70184 44.3267 2.86954 44.6321 2.29838 44.8314L1.42188 45.1363L2.25883 44.7312L3.26679 44.2491C3.66288 44.0528 4.12818 43.8535 4.64408 43.6262L5.46359 43.2683C5.74975 43.1424 6.04928 43.0087 6.36627 42.8823C6.99675 42.6215 7.68365 42.3507 8.41708 42.0577L10.7744 41.1819L12.0639 40.7446C12.5053 40.599 12.9538 40.4379 13.4179 40.2947C15.2733 39.719 17.2944 39.1194 19.4627 38.6051C20.5416 38.3271 21.6636 38.1021 22.8071 37.854C23.3788 37.7275 23.9622 37.632 24.5519 37.521C25.1417 37.4101 25.7309 37.2979 26.3323 37.2102L28.1481 36.9262C28.7594 36.8409 29.3771 36.7681 29.9977 36.6876L30.9283 36.5682L31.8717 36.4728C32.5016 36.4131 33.1332 36.3439 33.7701 36.2938C36.3066 36.0832 38.9349 35.9955 41.49 35.9746L43.4454 36.0038C44.0934 36.0038 44.7396 36.0373 45.3852 36.0635L46.3518 36.1035L46.8346 36.1256L47.3156 36.159L49.2349 36.295C49.5537 36.3135 49.8701 36.3547 50.1865 36.3803L51.1334 36.4728L52.0744 36.5682L53.0085 36.6876C53.6291 36.7681 54.2462 36.8409 54.8575 36.9262L56.6733 37.2108C57.2747 37.2985 57.8668 37.4148 58.4543 37.5216C59.0417 37.6284 59.6239 37.7293 60.1951 37.8546C61.3391 38.1033 62.4634 38.3271 63.54 38.6063C65.7077 39.12 67.7277 39.7196 69.5843 40.2959C70.0496 40.4385 70.4974 40.5996 70.9389 40.7452L72.2283 41.1825L74.5816 42.0607C75.315 42.3531 76.0013 42.6245 76.6324 42.8852C76.9494 43.0111 77.2489 43.1454 77.5357 43.2712L78.3557 43.6292C78.8745 43.8571 79.3387 44.0564 79.7325 44.2521L80.7398 44.733L81.5768 45.1363Z" fill="black"/>
<path id="Vector_10" d="M82.984 58.564C83.0056 58.4678 83.0042 58.3676 82.9798 58.2721C82.9555 58.1766 82.9089 58.0886 82.8441 58.0156C82.7794 57.9426 82.6983 57.8867 82.6079 57.8529C82.5175 57.819 82.4204 57.8082 82.325 57.8212C81.6224 57.9143 80.8634 58.1553 80.2894 58.6749C78.3979 60.386 76.04 59.9022 76.04 59.9022C76.04 59.9022 78.2258 59.3557 79.856 57.6201C80.3851 57.0671 81.036 56.6525 81.7539 56.4114C82.0976 56.2921 82.161 55.8148 81.8516 55.6185C80.7326 54.9115 79.0301 54.9282 77.4894 55.7849C75.4206 56.9358 74.4289 59.166 75.2746 60.7655C76.1203 62.365 78.4828 62.7284 80.5517 61.5775C81.8481 60.8544 82.7206 59.7119 82.984 58.564Z" fill="black"/>
<path id="Vector_11" d="M0.0153867 58.564C-0.00636921 58.4678 -0.00503592 58.3676 0.0192721 58.272C0.0435801 58.1764 0.0901365 58.0883 0.154944 58.0153C0.219752 57.9422 0.300875 57.8864 0.391347 57.8526C0.48182 57.8188 0.57894 57.808 0.674368 57.8212C1.37697 57.9143 2.13599 58.1553 2.71006 58.6749C4.60208 60.386 6.95999 59.9022 6.95999 59.9022C6.95999 59.9022 4.77366 59.3557 3.14395 57.6201C2.61487 57.0671 1.96399 56.6525 1.24611 56.4114C0.902365 56.2921 0.838968 55.8148 1.14839 55.6185C2.26686 54.9115 3.96986 54.9282 5.51058 55.7849C7.57942 56.9358 8.57109 59.166 7.72541 60.7655C6.87973 62.365 4.51716 62.7284 2.44832 61.5775C1.1513 60.8544 0.278281 59.7119 0.0153867 58.564Z" fill="black"/>
<path id="Vector_12" d="M29.2028 70.7463C29.4354 70.948 29.7361 71.0088 30.1334 70.9056C31.0238 70.6795 31.2344 70.1145 31.2629 69.5722C31.3792 69.5334 31.4955 69.4946 31.6154 69.457C31.5863 69.4743 31.7968 71.1419 30.3619 71.6311C28.7096 72.2224 27.8662 71.3549 27.6283 70.6538C27.302 69.6927 27.8447 68.6331 28.8067 68.2847C29.208 68.1349 30.0397 67.9786 30.341 68.7023C30.3925 68.9348 30.3721 69.1779 30.2828 69.398C30.1264 69.747 29.8292 70.2458 29.2028 70.7463ZM28.8742 70.2941C29.0263 70.143 29.1407 69.9566 29.2076 69.7505C29.2745 69.5444 29.292 69.3249 29.2586 69.1104C29.2185 68.8312 28.9602 68.7184 28.7666 69.1999C28.6601 69.4666 28.6979 69.9164 28.8742 70.2941Z" fill="black"/>
<path id="Vector_13" d="M35.2103 69.9964C35.5918 70.3371 34.8031 70.4212 34.4256 70.5047C34.2 70.5531 33.9836 70.3777 33.6154 70.0012C33.6154 70.0012 33.5689 69.9517 33.4881 69.8699C33.413 70.0722 33.3683 70.1963 33.3683 70.1963C33.1531 70.7511 33.11 70.7929 32.8483 70.8609C32.6156 70.9206 32.0968 71.1103 32.276 70.7153C32.4377 70.2106 32.61 69.7071 32.793 69.2047C32.5522 68.9857 32.2905 68.7656 32.0672 68.6021C31.8438 68.4386 31.7077 68.4357 31.7339 68.6499C31.7548 68.8163 31.9665 69.5615 31.9665 69.5615C31.8502 69.5973 31.738 69.6343 31.624 69.6713C31.624 69.6713 31.4826 69.1635 31.3081 68.5419C31.1674 68.0437 31.2756 67.5431 31.6152 67.4125C32.2498 67.1696 32.501 67.3659 32.5005 67.3647C32.7541 67.5767 33.0042 67.7913 33.2508 68.0085C33.3791 67.6875 33.5123 67.3671 33.6503 67.0473C33.6719 66.9692 33.7201 66.8994 33.8562 66.8618C33.8824 66.8534 34.4245 66.7425 34.4879 66.7425C34.6193 66.7317 34.802 66.7526 34.7002 66.9698C34.5129 67.3689 34.2099 68.0479 33.9522 68.6821C34.3853 69.1116 34.8047 69.5497 35.2103 69.9964Z" fill="black"/>
<path id="Vector_14" d="M38.2813 69.7843C37.9126 69.8088 37.5613 69.6996 37.2926 69.4156C37.3593 69.9867 37.4267 70.5579 37.495 71.1291C37.5444 71.5014 37.249 71.4829 37.0093 71.5139C36.6836 71.5562 36.4277 71.459 36.3474 70.8743L35.8571 67.5929C35.8571 67.5929 35.799 67.2397 35.6338 67.1496C35.4256 67.0369 35.4593 66.562 36.0502 66.4725C36.7173 66.3746 36.918 66.6485 36.9767 66.8304C37.1623 66.482 37.442 66.244 37.8195 66.2058C38.9647 66.0942 39.5382 66.8895 39.6319 67.8912C39.7255 68.8929 39.1794 69.7252 38.2813 69.7843ZM37.9417 67.0762C37.5624 67.1789 37.3891 67.4849 37.3321 68.3017C37.4903 68.5594 37.8748 68.9866 38.0533 68.9938C38.7298 69.023 38.7449 66.8668 37.9417 67.0762Z" fill="black"/>
<path id="Vector_15" d="M43.672 67.9543C43.601 68.1333 43.4021 68.3516 42.8397 68.3295C42.2773 68.3075 42.1999 67.869 42.368 67.7103C42.4055 67.6715 42.4338 67.6245 42.4508 67.5728C42.4679 67.5211 42.4731 67.4661 42.4663 67.4119C42.4227 67.2157 42.3302 67.0647 42.1464 67.0761C41.8585 67.0934 41.5683 67.5838 41.4926 68.817C41.4926 69.0139 41.4926 69.2107 41.4926 69.4076C41.499 69.7841 41.196 69.7286 40.9442 69.731C40.6033 69.731 40.3492 69.6051 40.3393 69.0151C40.3211 68.399 40.3032 67.7824 40.2858 67.1655C40.2858 67.1655 40.2677 66.8076 40.1165 66.6978C39.924 66.5606 40.0136 66.0934 40.6074 66.0767C41.2216 66.063 41.4147 66.31 41.4711 66.4944C41.5781 66.3625 41.7125 66.2568 41.8645 66.1852C42.0164 66.1135 42.1821 66.0777 42.3494 66.0803C43.8191 66.0707 43.7243 67.5068 43.7249 67.4997C43.7255 67.4925 43.7174 67.8349 43.672 67.9543Z" fill="black"/>
<path id="Vector_16" d="M45.7315 68.7419C45.8479 69.0295 46.0846 69.2234 46.483 69.3171C47.3671 69.5277 47.8027 69.1214 48.0668 68.6513C48.1878 68.6704 48.3085 68.6902 48.4291 68.7109C48.3971 68.7109 47.8475 70.2979 46.3667 70.0694C44.6526 69.8308 44.2984 68.6656 44.3956 67.9305C44.5287 66.9223 45.4646 66.2296 46.4638 66.3644C46.8826 66.4169 47.6852 66.6627 47.6329 67.4509C47.5771 67.6825 47.453 67.8908 47.2775 68.0475C46.982 68.279 46.501 68.5862 45.7315 68.7419ZM45.6402 68.1865C45.8411 68.1216 46.0238 68.008 46.1728 67.8554C46.3219 67.7027 46.4329 67.5154 46.4964 67.3095C46.5836 67.0416 46.4051 66.8214 46.0247 67.1609C45.8141 67.3494 45.6507 67.7683 45.6402 68.1865Z" fill="black"/>
<path id="Vector_17" d="M51.3814 70.1578C51.168 70.8349 50.2513 70.8689 49.5388 70.6983C48.047 70.3481 48.19 69.5373 48.1883 69.5003C48.1851 69.4316 48.1623 69.3654 48.1226 69.31C47.9772 69.1375 48.1569 68.7134 48.7001 68.8225C49.4254 68.9759 49.419 69.3893 49.3888 69.5432C49.3812 69.582 49.4033 69.9012 49.7674 69.9812C50.0379 70.0408 50.274 70.1005 50.3694 69.7198C50.456 69.3768 49.7116 69.1519 49.6761 69.1447C48.9735 68.9538 48.3209 68.5439 48.5826 67.6269C48.7792 66.9408 49.7279 66.831 50.5224 67.0303C51.3523 67.2385 51.7083 67.5672 51.8543 67.8357C51.9264 67.967 51.9595 68.313 51.8176 68.5737C51.7269 68.7432 51.4623 68.8983 50.901 68.7456C50.3397 68.5928 50.3054 68.1895 50.509 68.0738C50.5346 68.0595 50.6253 68.0541 50.6457 67.967C50.5357 67.862 50.4898 67.8518 50.3397 67.8059C50.0582 67.7194 49.6575 67.76 49.6051 68.0875C49.5586 68.3751 49.8046 68.4831 50.2816 68.6597C51.2046 69.0045 51.6106 69.4215 51.3814 70.1578Z" fill="black"/>
<path id="Vector_18" d="M55.1058 71.4942C54.8202 72.1434 53.8978 72.0694 53.2027 71.817C51.7486 71.2956 51.9766 70.5045 51.9784 70.4698C51.9824 70.4009 51.9666 70.3323 51.933 70.2724C51.8062 70.0844 52.0307 69.6811 52.5623 69.8547C53.2713 70.0934 53.2219 70.5015 53.1748 70.6506C53.1632 70.6888 53.1515 71.0086 53.5075 71.1279C53.7721 71.2174 54.0024 71.3069 54.138 70.9382C54.2613 70.6071 53.5395 70.2962 53.5046 70.2855C52.8217 70.014 52.2128 69.5314 52.574 68.6496C52.8433 67.9933 53.8041 67.9933 54.5783 68.282C55.3879 68.5851 55.7095 68.9556 55.827 69.2366C55.8852 69.3762 55.8823 69.7211 55.7107 69.9663C55.6013 70.1244 55.3198 70.2479 54.7737 70.0295C54.2275 69.8112 54.2363 69.4079 54.4526 69.3136C54.4794 69.3023 54.5736 69.3082 54.6009 69.2235C54.5015 69.1042 54.4573 69.0905 54.3101 69.0278C54.0373 68.9085 53.6319 68.9031 53.5447 69.2223C53.4679 69.5027 53.7023 69.6399 54.1618 69.8702C55.05 70.3267 55.4135 70.7896 55.1058 71.4942Z" fill="black"/>
</g>
</svg>
