<svg width="42" height="14" viewBox="0 0 42 14" fill="none" xmlns="http://www.w3.org/2000/svg">
<g id="Group 1">
<path id="Vector" fill-rule="evenodd" clip-rule="evenodd" d="M5.55326 3.99439L4.75909 2.39135L3.96978 3.99439H5.55326ZM23.0277 3.35829C22.8708 3.43242 22.6821 3.4405 22.4548 3.4405H21.0461V2.54525H22.4734C22.6772 2.54525 22.8888 2.55159 23.0262 2.61371C23.1742 2.67517 23.2683 2.79983 23.2683 2.97111C23.2683 3.1486 23.177 3.287 23.0277 3.35829ZM33.0697 3.99439L32.2708 2.39135L31.4767 3.99439H33.0697ZM14.3506 5.73287H13.1625L13.1555 2.58043L11.4769 5.73287H10.4595L8.77195 2.57342V5.73287H6.41423L5.97053 4.83438H3.55656L3.10865 5.73287H1.84874L3.92147 1.70243H5.64583L7.61627 5.52088V1.70243H9.51068L11.0256 4.43898L12.4202 1.70243H14.3506V5.73287ZM19.0842 5.73287H15.2122V1.70243H19.0839V2.54525H16.3742V3.26868H19.0177V4.09722L16.3742 4.09371V4.89867H19.084L19.0842 5.73287ZM24.5447 2.7912C24.5447 3.42837 24.0292 3.76515 23.7306 3.86448C23.9835 3.94547 24.1984 4.08455 24.2993 4.20516C24.463 4.40165 24.4956 4.58561 24.4956 4.94004V5.73287H23.3263L23.3227 5.22615C23.3227 4.98653 23.3503 4.63722 23.1347 4.44424C22.9654 4.30004 22.7104 4.27012 22.2917 4.27012H21.0462V5.73287H19.8879V1.70243H22.5563C23.1452 1.70243 23.5834 1.7186 23.9593 1.89784C24.3263 2.07587 24.5447 2.33947 24.5447 2.7912ZM25.2186 5.73287H26.401V1.70189H25.2186V5.73287ZM40.1198 5.73287H38.4757L36.278 2.71075L36.2821 5.73287H33.9213L33.4691 4.83438H31.0586L30.6253 5.73287H29.2684C28.7031 5.73287 27.9886 5.62842 27.5885 5.28881C27.1765 4.94462 26.9684 4.48332 26.9684 3.74844C26.9684 3.15089 27.0948 2.60509 27.5925 2.17357C27.9678 1.85188 28.5532 1.70243 29.3529 1.70243H30.473V2.56547H29.3777C28.9541 2.56547 28.713 2.61937 28.482 2.80616C28.2872 2.97623 28.1489 3.29671 28.1489 3.72028C28.1489 4.15287 28.2526 4.46081 28.471 4.66714C28.6451 4.82508 28.9706 4.87279 29.2768 4.87279H29.798L31.4311 1.70243H33.1673L35.1306 5.51522V1.70229H36.8979L38.9347 4.50906V1.70229H40.1198V5.73287ZM1.83496 6.5269H3.81578L4.26222 5.62842H5.26163L5.70662 6.5269H9.60454V5.84095L9.95307 6.5292H11.973L12.32 5.83232V6.5269H22.0054L22.0006 5.05661H22.188C22.3199 5.05904 22.3593 5.07157 22.3593 5.25256V6.5269H27.3652V6.18514C27.7695 6.36546 28.3992 6.5269 29.223 6.5269H31.3316L31.7814 5.62842H32.7823L33.2281 6.5269H37.2849V5.67492L37.9007 6.5269H41.1497V0.903809H37.9332V1.56969L37.4841 0.903943H34.1774V1.56969L33.764 0.903943H29.3012C28.5533 0.903943 27.8947 0.989385 27.3654 1.23183V0.903809H24.2892V1.23183C23.9472 0.982511 23.4874 0.903809 22.9781 0.903809H11.7257L10.9676 2.35793L10.1962 0.903809H6.65285V1.56969L6.25957 0.903943H3.23786L0.584961 6.5269H1.83496Z" fill="#0085FF"/>
<g id="Vector_2">
<path fill-rule="evenodd" clip-rule="evenodd" d="M41.1984 9.85048C40.9078 9.38518 40.8357 9.54079 40.2018 9.19956C39.9605 9.06961 38.276 9.12773 38.276 9.12773C38.0653 9.12773 37.9249 9.13461 37.8116 9.19956C37.69 9.26385 37.6388 9.36452 37.6388 9.49254C37.6388 9.642 37.7425 9.74536 37.8965 9.79024C38.0128 9.82582 38.1475 9.83498 38.3451 9.83741L38.9658 9.85048C39.5988 9.86544 40.0254 9.95506 40.2844 10.1739C40.328 10.2063 40.359 10.2447 40.3922 10.2757C40.3922 10.2757 40.6102 10.7524 40.6006 11.0748C40.5919 11.3642 40.3922 11.7861 40.3922 11.7861V12.8365C40.3922 12.8365 40.6576 12.7313 40.884 12.4692C41.223 12.0767 41.3663 11.7346 41.4006 11.2171C41.431 10.7588 41.4418 10.2401 41.1984 9.85048ZM40.3922 11.7861C40.1075 12.1298 39.5595 12.3027 38.8159 12.3027H36.5765V11.4363H38.8089C39.0266 11.4363 39.1829 11.4116 39.279 11.3363C39.3568 11.2771 39.4165 11.1857 39.4165 11.0748C39.4165 10.956 39.357 10.8618 39.2761 10.8077C39.1856 10.744 39.066 10.7181 38.8656 10.7158C37.7779 10.6876 36.4197 10.744 36.4197 9.46896C36.4197 8.88475 36.8683 8.26941 38.0805 8.26941H40.0558V9.19956H40.2018L41.0703 9.66709V7.46729H38.2451C37.5968 7.46729 37.1275 7.59477 36.7924 7.79827V7.46729H33.618C33.1154 7.46729 32.5205 7.5724 32.2344 7.79827L32.2386 7.46729H26.5706V7.79827C26.1193 7.52766 25.3605 7.46729 25.0046 7.46729H21.2717V7.79827C20.913 7.50987 20.1238 7.46729 19.6378 7.46729H15.4538L14.498 8.3314L13.6015 7.46729H7.35156V13.0938H13.4846L14.4716 12.2194L15.4011 13.0939L19.176 13.0962V11.7729H19.55C20.0483 11.7787 20.644 11.7638 21.1651 11.5764V13.0939H24.2815V11.6271H24.4314C24.6235 11.6271 24.6428 11.6363 24.6428 11.7942V13.0939H34.1127C34.7098 13.0939 35.3373 12.9659 35.6884 12.7359V13.0939H38.6928C39.3182 13.0939 39.9258 13.0221 40.3922 12.8365V11.7861ZM35.7666 10.1741C35.9932 10.3695 36.1135 10.6158 36.1135 11.0289C36.1135 11.8988 35.4604 12.3027 34.2938 12.3027H32.033V11.4363H34.2834C34.506 11.4363 34.66 11.4116 34.761 11.3363C34.8037 11.3027 34.8376 11.2621 34.8606 11.2171C34.8836 11.1722 34.8951 11.1237 34.8944 11.0748C34.8944 10.956 34.8322 10.8618 34.7527 10.8077C34.6636 10.744 34.5425 10.7181 34.3415 10.7158C33.2544 10.6876 31.9004 10.744 31.9004 9.46896C31.9004 8.88475 32.342 8.26941 33.5528 8.26941H35.8799V9.12773H33.7567C33.5432 9.12773 33.4043 9.13461 33.2883 9.19956C33.1625 9.26385 33.1154 9.36452 33.1154 9.49254C33.1154 9.642 33.2232 9.74536 33.3704 9.79024C33.4893 9.82582 33.6178 9.83498 33.8175 9.83741L34.4423 9.85048C35.0755 9.86544 35.5033 9.95519 35.7666 10.1741ZM25.3063 9.92689C25.1543 10.001 24.96 10.0086 24.7368 10.0086H23.3276V9.10536H24.7555C24.96 9.10536 25.1701 9.10873 25.3063 9.1749C25.4571 9.24269 25.5469 9.36681 25.5469 9.54079C25.5469 9.71154 25.4571 9.85048 25.3063 9.92689ZM26.0071 10.4285C26.2649 10.5061 26.4756 10.6486 26.5745 10.7663C26.7377 10.9641 26.7646 11.1477 26.7659 11.5023V12.3028H25.6049V11.7988C25.6049 11.5541 25.6333 11.1961 25.4162 11.01C25.2489 10.8618 24.9899 10.829 24.5682 10.829H23.3276V12.3027H22.1645V8.26941H24.8385C25.4272 8.26941 25.8551 8.28949 26.2345 8.4601C26.6001 8.64231 26.8269 8.89796 26.8269 9.35697C26.8269 9.99765 26.3127 10.3262 26.0071 10.4285ZM27.4716 8.26941H31.342V9.10536H28.6266V9.83498H31.2742V10.6584H28.6265V11.4599L31.342 11.4644V12.3027H27.4716V8.26941ZM19.6536 10.1292H18.1524V9.10536H19.666C20.0843 9.10536 20.3738 9.24377 20.3738 9.59941C20.3738 9.94711 20.0981 10.1292 19.6536 10.1292ZM16.9982 11.9367L15.2223 10.2941L16.9985 8.70255L16.9982 11.9367ZM12.4037 11.4599H9.55414V10.6584H12.0984V9.83498H9.55414V9.10536H12.4596L13.7252 10.278L12.4037 11.4599ZM21.6172 9.59941C21.6172 10.7158 20.615 10.9491 19.5989 10.9491H18.1524V12.3027H15.9028L14.475 10.9685L12.9918 12.3027H8.40203V8.26941H13.063L14.4889 9.59025L15.9623 8.26941H19.666C20.5867 8.26941 21.6172 8.48005 21.6172 9.59941Z" fill="#0085FF"/>
</g>
</g>
</svg>
