<svg width="39" height="24" viewBox="0 0 39 24" fill="none" xmlns="http://www.w3.org/2000/svg">
<g id="Frame">
<path id="Vector" opacity="0.07" d="M35.977 0.00244141H3.98374C2.2841 0.00244141 0.984375 1.30217 0.984375 3.00181V20.998C0.984375 22.6977 2.38408 23.9974 3.98374 23.9974H35.977C37.6766 23.9974 38.9764 22.6977 38.9764 20.998V3.00181C38.9764 1.30217 37.5767 0.00244141 35.977 0.00244141Z" fill="black"/>
<path id="Vector_2" d="M35.9772 1.00244C37.077 1.00244 37.9768 1.90225 37.9768 3.00202V20.9982C37.9768 22.098 37.077 22.9978 35.9772 22.9978H3.98395C2.88419 22.9978 1.98438 22.098 1.98438 20.9982V3.00202C1.98438 1.90225 2.88419 1.00244 3.98395 1.00244H35.9772Z" fill="white"/>
<path id="Vector_3" d="M15.9809 18.9985C19.8461 18.9985 22.9795 15.8652 22.9795 12C22.9795 8.13481 19.8461 5.00146 15.9809 5.00146C12.1158 5.00146 8.98242 8.13481 8.98242 12C8.98242 15.8652 12.1158 18.9985 15.9809 18.9985Z" fill="#EB001B"/>
<path id="Vector_4" d="M23.98 18.9985C27.8452 18.9985 30.9785 15.8652 30.9785 12C30.9785 8.13481 27.8452 5.00146 23.98 5.00146C20.1148 5.00146 16.9814 8.13481 16.9814 12C16.9814 15.8652 20.1148 18.9985 23.98 18.9985Z" fill="#F79E1B"/>
<path id="Vector_5" d="M22.9802 12.0001C22.9802 9.60057 21.7804 7.50102 19.9808 6.30127C18.1812 7.601 16.9814 9.70055 16.9814 12.0001C16.9814 14.2996 18.1812 16.4991 19.9808 17.6989C21.7804 16.4991 22.9802 14.3996 22.9802 12.0001Z" fill="#FF5F00"/>
</g>
</svg>
