<svg width="26" height="31" viewBox="0 0 26 31" fill="none" xmlns="http://www.w3.org/2000/svg">
<path d="M22.144 15.578C22.0344 15.4659 21.9035 15.3767 21.759 15.3157C21.6145 15.2547 21.4593 15.2231 21.3025 15.2227C21.1456 15.2222 20.9903 15.253 20.8455 15.3132C20.7007 15.3735 20.5693 15.4619 20.459 15.5734C20.3487 15.6849 20.2617 15.8173 20.2031 15.9628C20.1445 16.1082 20.1154 16.2639 20.1176 16.4207C20.1197 16.5775 20.1531 16.7324 20.2157 16.8762C20.2783 17.02 20.3689 17.1499 20.4822 17.2583C21.4848 18.2449 22.2803 19.4219 22.822 20.7201C23.3636 22.0184 23.6405 23.4117 23.6363 24.8184C23.6363 26.2638 19.493 28.3638 13 28.3638C6.507 28.3638 2.36368 26.2628 2.36368 24.816C2.3597 23.419 2.63287 22.0351 3.16736 20.7443C3.70185 19.4536 4.48706 18.2817 5.47752 17.2965C5.58955 17.1873 5.67877 17.0569 5.74002 16.9129C5.80126 16.7689 5.83331 16.6142 5.8343 16.4578C5.83529 16.3013 5.80521 16.1462 5.74579 16.0015C5.68638 15.8568 5.59881 15.7253 5.48818 15.6146C5.37755 15.504 5.24605 15.4164 5.10131 15.357C4.95657 15.2976 4.80148 15.2675 4.64502 15.2685C4.48857 15.2695 4.33387 15.3015 4.18989 15.3628C4.04592 15.424 3.91554 15.5133 3.80632 15.6253C2.59546 16.8298 1.63557 18.2625 0.982217 19.8405C0.328865 21.4185 -0.00496464 23.1105 5.57953e-05 24.8184C5.57953e-05 28.6564 6.69739 30.7274 13 30.7274C19.3026 30.7274 25.9999 28.6564 25.9999 24.8184C26.0052 23.099 25.6668 21.3958 25.0046 19.809C24.3425 18.2222 23.3699 16.7837 22.144 15.578Z" fill="#131313"/>
<path d="M12.9993 16.5454C14.6354 16.5454 16.2349 16.0602 17.5953 15.1512C18.9558 14.2422 20.0161 12.9502 20.6422 11.4385C21.2684 9.92688 21.4322 8.26352 21.113 6.65877C20.7938 5.05403 20.0059 3.57997 18.8489 2.42302C17.692 1.26606 16.2179 0.478165 14.6132 0.158961C13.0084 -0.160242 11.3451 0.00358442 9.83343 0.629725C8.32179 1.25587 7.02978 2.3162 6.12076 3.67663C5.21175 5.03707 4.72656 6.63651 4.72656 8.27269C4.7291 10.466 5.60149 12.5687 7.15238 14.1196C8.70326 15.6705 10.806 16.5429 12.9993 16.5454ZM12.9993 2.36363C14.168 2.36363 15.3104 2.71019 16.2822 3.35949C17.2539 4.00878 18.0113 4.93165 18.4585 6.01139C18.9058 7.09113 19.0228 8.27925 18.7948 9.4255C18.5668 10.5717 18.004 11.6246 17.1776 12.451C16.3512 13.2774 15.2983 13.8402 14.1521 14.0682C13.0058 14.2962 11.8177 14.1792 10.738 13.732C9.65821 13.2847 8.73534 12.5273 8.08605 11.5556C7.43675 10.5839 7.09019 9.4414 7.09019 8.27269C7.09203 6.70608 7.71519 5.20416 8.82295 4.09639C9.93072 2.98863 11.4326 2.36547 12.9993 2.36363Z" fill="#131313"/>
</svg>
