<?xml version="1.0" encoding="utf-8"?>
<svg width="214" height="24" viewBox="0 0 214 24" fill="none" xmlns="http://www.w3.org/2000/svg">
<g clip-path="url(#clip0_6140_17288)">
<path opacity="0.07" d="M34.9926 0.00292969H2.99937C1.29973 0.00292969 0 1.30266 0 3.0023V20.9985C0 22.6982 1.39971 23.9979 2.99937 23.9979H34.9926C36.6923 23.9979 37.992 22.6982 37.992 20.9985V3.0023C37.992 1.30266 36.5923 0.00292969 34.9926 0.00292969Z" fill="black"/>
<path d="M34.9928 1.00293C36.0926 1.00293 36.9924 1.90274 36.9924 3.00251V20.9987C36.9924 22.0985 36.0926 22.9983 34.9928 22.9983H2.99958C1.89981 22.9983 1 22.0985 1 20.9987V3.00251C1 1.90274 1.89981 1.00293 2.99958 1.00293H34.9928Z" fill="#006FCF"/>
<path d="M8.96995 10.2685L9.74379 12.1441H8.20212L8.96995 10.2685ZM25.0416 10.3465H22.0652V11.1733H24.9936V12.412H22.0712V13.3339H25.0476V14.0727L27.1241 11.8282L25.0476 9.48866L25.0416 10.3465ZM10.9815 8.00697H14.9757L15.8625 9.94157L16.6843 8.00098H27.0521L28.1299 9.19073L29.2447 8.00098H34.0067L30.4884 11.8522L33.9707 15.6794H29.1377L28.0599 14.4896L26.9352 15.6794H10.0287L9.53483 14.4896H8.40507L7.91018 15.6794H4L7.28531 8.00098H10.7146L10.9815 8.00697ZM19.6427 9.08475H17.4042L15.9045 12.62L14.2798 9.08475H12.0583V13.8937L9.99874 9.08475H8.00616L5.62466 14.5956H7.17933L7.67323 13.4058H10.2687L10.7626 14.5956H13.482V10.6614L15.2326 14.6016H16.4224L18.162 10.6734V14.6026H19.6197L19.6437 9.08375L19.6427 9.08475ZM28.9807 11.8522L31.5112 9.08475H29.6896L28.0889 10.8104L26.5413 9.08475H20.6485V14.6016H26.4573L28.0709 12.864L29.6186 14.6016H31.4932L28.9817 11.8522H28.9807Z" fill="white"/>
</g>
<g clip-path="url(#clip1_6140_17288)">
<path opacity="0.07" d="M78.9848 0.00292969H46.9916C45.2919 0.00292969 43.9922 1.30266 43.9922 3.0023V20.9985C43.9922 22.6982 45.3919 23.9979 46.9916 23.9979H78.9848C80.6845 23.9979 81.9842 22.6982 81.9842 20.9985V3.0023C81.9842 1.30266 80.5845 0.00292969 78.9848 0.00292969Z" fill="black"/>
<path d="M78.985 1.00195C80.0848 1.00195 80.9846 1.90176 80.9846 3.00153V20.9977C80.9846 22.0975 80.0848 22.9973 78.985 22.9973H46.9918C45.892 22.9973 44.9922 22.0975 44.9922 20.9977V3.00153C44.9922 1.90176 45.892 1.00195 46.9918 1.00195H78.985Z" fill="white"/>
<path d="M47.5619 7.16099H45.9922V12.6598H47.5619C48.3917 12.6598 48.9916 12.4599 49.5214 12.03C50.1513 11.5101 50.5212 10.7302 50.5212 9.92041C50.5112 8.29075 49.3015 7.16099 47.5619 7.16099ZM48.8216 11.3001C48.4817 11.6001 48.0518 11.74 47.3519 11.74H47.062V8.10079H47.3519C48.0418 8.10079 48.4617 8.22077 48.8216 8.5407C49.1915 8.87063 49.4115 9.38052 49.4115 9.91041C49.4115 10.4403 49.1915 10.9702 48.8216 11.3001ZM51.0111 7.16099H52.0809V12.6598H51.0111V7.16099ZM54.7004 9.27055C54.0605 9.0306 53.8705 8.87063 53.8705 8.58069C53.8705 8.23077 54.2105 7.97082 54.6704 7.97082C54.9903 7.97082 55.2602 8.10079 55.5302 8.42073L56.0901 7.69088C55.6302 7.29096 55.0803 7.08101 54.4704 7.08101C53.5006 7.08101 52.7508 7.76086 52.7508 8.66067C52.7508 9.42051 53.1007 9.81043 54.1005 10.1704C54.5204 10.3203 54.7303 10.4203 54.8403 10.4803C55.0503 10.6203 55.1603 10.8202 55.1603 11.0502C55.1603 11.5001 54.8103 11.83 54.3304 11.83C53.8205 11.83 53.4106 11.5701 53.1607 11.1002L52.4708 11.77C52.9607 12.4999 53.5606 12.8198 54.3704 12.8198C55.4802 12.8198 56.27 12.08 56.27 11.0102C56.29 10.1204 55.9201 9.72045 54.7004 9.27055ZM56.6199 9.92041C56.6199 11.5401 57.8897 12.7898 59.5193 12.7898C59.9792 12.7898 60.3792 12.6998 60.8591 12.4699V11.2101C60.4291 11.64 60.0492 11.81 59.5693 11.81C58.4896 11.81 57.7197 11.0302 57.7197 9.91041C57.7197 8.85063 58.5096 8.02081 59.5193 8.02081C60.0292 8.02081 60.4192 8.20077 60.8591 8.64068V7.38094C60.3892 7.14099 59.9992 7.04102 59.5393 7.04102C57.9297 7.04102 56.6199 8.32075 56.6199 9.92041ZM69.3773 10.8602L67.9076 7.16099H66.7378L69.0673 12.7998H69.6472L72.0167 7.16099H70.857L69.3773 10.8602ZM72.5066 12.6598H75.546V11.73H73.5764V10.2503H75.476V9.32054H73.5764V8.10079H75.546V7.16099H72.5066V12.6598ZM79.7951 8.79065C79.7951 7.76086 79.0852 7.17099 77.8455 7.17099H76.2558V12.6698H77.3256V10.4603H77.4656L78.9452 12.6698H80.265L78.5353 10.3503C79.3452 10.1804 79.7951 9.63047 79.7951 8.79065ZM77.6355 9.70046H77.3256V8.03081H77.6555C78.3254 8.03081 78.6853 8.31075 78.6853 8.85064C78.6853 9.40052 78.3254 9.70046 77.6355 9.70046Z" fill="black"/>
<path d="M64.1472 12.8598C64.9244 12.8598 65.6697 12.5511 66.2193 12.0015C66.7688 11.4519 67.0776 10.7066 67.0776 9.92941C67.0776 9.15222 66.7688 8.40687 66.2193 7.85731C65.6697 7.30776 64.9244 6.99902 64.1472 6.99902C63.37 6.99902 62.6246 7.30776 62.0751 7.85731C61.5255 8.40687 61.2168 9.15222 61.2168 9.92941C61.2168 10.7066 61.5255 11.4519 62.0751 12.0015C62.6246 12.5511 63.37 12.8598 64.1472 12.8598Z" fill="url(#paint0_linear_6140_17288)"/>
<path opacity="0.65" d="M64.1472 12.8598C64.9244 12.8598 65.6697 12.5511 66.2193 12.0015C66.7688 11.4519 67.0776 10.7066 67.0776 9.92941C67.0776 9.15222 66.7688 8.40687 66.2193 7.85731C65.6697 7.30776 64.9244 6.99902 64.1472 6.99902C63.37 6.99902 62.6246 7.30776 62.0751 7.85731C61.5255 8.40687 61.2168 9.15222 61.2168 9.92941C61.2168 10.7066 61.5255 11.4519 62.0751 12.0015C62.6246 12.5511 63.37 12.8598 64.1472 12.8598Z" fill="url(#paint1_linear_6140_17288)"/>
<path d="M80.5548 7.50742C80.5548 7.40742 80.4848 7.35742 80.3748 7.35742H80.2148V7.83742H80.3348V7.64742L80.4748 7.83742H80.6148L80.4548 7.63742C80.5148 7.62742 80.5548 7.57742 80.5548 7.50742ZM80.3548 7.57742H80.3348V7.44742H80.3548C80.4148 7.44742 80.4448 7.46742 80.4448 7.50742C80.4448 7.55742 80.4148 7.57742 80.3548 7.57742Z" fill="black"/>
<path d="M80.3946 7.17676C80.1646 7.17676 79.9746 7.36676 79.9746 7.59676C79.9746 7.82676 80.1646 8.01676 80.3946 8.01676C80.6246 8.01676 80.8146 7.82676 80.8146 7.59676C80.8146 7.36676 80.6246 7.17676 80.3946 7.17676ZM80.3946 7.94676C80.2146 7.94676 80.0546 7.79676 80.0546 7.59676C80.0546 7.40676 80.2046 7.24676 80.3946 7.24676C80.5746 7.24676 80.7246 7.40676 80.7246 7.59676C80.7246 7.78676 80.5746 7.94676 80.3946 7.94676Z" fill="black"/>
<path d="M80.9849 12.9834C80.9849 12.9834 71.077 19.8709 52.9668 22.9973H78.9843C79.5119 22.9973 80.0181 22.7888 80.3926 22.4173C80.7671 22.0458 80.9797 21.5413 80.9839 21.0137L81.0079 17.9943L80.9849 12.9844V12.9834Z" fill="#F48120"/>
</g>
<g clip-path="url(#clip2_6140_17288)">
<path opacity="0.07" d="M122.977 0.00292969H90.9837C89.2841 0.00292969 87.9844 1.30266 87.9844 3.0023V20.9985C87.9844 22.6982 89.3841 23.9979 90.9837 23.9979H122.977C124.677 23.9979 125.976 22.6982 125.976 20.9985V3.0023C125.976 1.30266 124.577 0.00292969 122.977 0.00292969Z" fill="black"/>
<path d="M122.977 1.00195C124.077 1.00195 124.977 1.90176 124.977 3.00153V20.9977C124.977 22.0975 124.077 22.9973 122.977 22.9973H90.984C89.8842 22.9973 88.9844 22.0975 88.9844 20.9977V3.00153C88.9844 1.90176 89.8842 1.00195 90.984 1.00195H122.977Z" fill="white"/>
<path d="M102.981 18.999C106.846 18.999 109.979 15.8657 109.979 12.0005C109.979 8.1353 106.846 5.00195 102.981 5.00195C99.1158 5.00195 95.9824 8.1353 95.9824 12.0005C95.9824 15.8657 99.1158 18.999 102.981 18.999Z" fill="#EB001B"/>
<path d="M110.979 18.999C114.844 18.999 117.978 15.8657 117.978 12.0005C117.978 8.1353 114.844 5.00195 110.979 5.00195C107.114 5.00195 103.98 8.1353 103.98 12.0005C103.98 15.8657 107.114 18.999 110.979 18.999Z" fill="#F79E1B"/>
<path d="M109.979 11.9996C109.979 9.60009 108.779 7.50053 106.98 6.30078C105.18 7.60051 103.98 9.70007 103.98 11.9996C103.98 14.2991 105.18 16.4986 106.98 17.6984C108.779 16.4986 109.979 14.3991 109.979 11.9996Z" fill="#FF5F00"/>
</g>
<g clip-path="url(#clip3_6140_17288)">
<path opacity="0.07" d="M166.969 0.00292969H134.976C133.276 0.00292969 131.977 1.30266 131.977 3.0023V20.9985C131.977 22.6982 133.376 23.9979 134.976 23.9979H166.969C168.669 23.9979 169.969 22.6982 169.969 20.9985V3.0023C169.969 1.30266 168.569 0.00292969 166.969 0.00292969Z" fill="black"/>
<path d="M166.969 1.00195C168.069 1.00195 168.969 1.90176 168.969 3.00153V20.9977C168.969 22.0975 168.069 22.9973 166.969 22.9973H134.976C133.876 22.9973 132.977 22.0975 132.977 20.9977V3.00153C132.977 1.90176 133.876 1.00195 134.976 1.00195H166.969Z" fill="white"/>
<path d="M155.871 8.30126C156.071 7.30147 155.871 6.60162 155.271 6.00174C154.671 5.30189 153.571 5.00195 152.171 5.00195H148.072C147.772 5.00195 147.572 5.20191 147.472 5.50185L145.973 15.5997C145.973 15.7997 146.073 15.9996 146.273 15.9996H148.972L149.372 12.6004L151.172 10.4008L155.871 8.30126Z" fill="#003087"/>
<path d="M155.871 8.30078L155.671 8.50074C155.171 11.3001 153.471 12.2999 151.072 12.2999H149.972C149.672 12.2999 149.472 12.4999 149.372 12.7998L148.772 16.699L148.572 17.6988C148.572 17.8988 148.672 18.0987 148.872 18.0987H150.972C151.272 18.0987 151.472 17.8988 151.472 17.6988V17.5988L151.872 15.1993V15.0994C151.872 14.8994 152.172 14.6994 152.371 14.6994H152.671C154.771 14.6994 156.371 13.8996 156.771 11.5001C156.97 10.5003 156.871 9.70049 156.371 9.10061C156.271 8.60072 156.071 8.40076 155.871 8.30078Z" fill="#3086C8"/>
<path d="M155.272 8.10072C155.172 8.00074 155.072 8.00074 154.972 8.00074C154.872 8.00074 154.772 8.00074 154.672 7.90076C154.372 7.80078 153.972 7.80078 153.572 7.80078H150.573C150.473 7.80078 150.373 7.80078 150.373 7.90076C150.173 8.00074 150.073 8.10072 150.073 8.30068L149.373 12.6997V12.7997C149.373 12.4998 149.673 12.2998 149.973 12.2998H151.273C153.772 12.2998 155.372 11.3 155.872 8.50063V8.30068C155.772 8.2007 155.572 8.10072 155.372 8.10072H155.272Z" fill="#012169"/>
</g>
<g clip-path="url(#clip4_6140_17288)">
<path opacity="0.07" d="M210.961 0.00292969H178.968C177.268 0.00292969 175.969 1.30266 175.969 3.0023V20.9985C175.969 22.6982 177.368 23.9979 178.968 23.9979H210.961C212.661 23.9979 213.961 22.6982 213.961 20.9985V3.0023C213.961 1.30266 212.561 0.00292969 210.961 0.00292969Z" fill="black"/>
<path d="M210.962 1.00195C212.061 1.00195 212.961 1.90176 212.961 3.00153V20.9977C212.961 22.0975 212.061 22.9973 210.962 22.9973H178.968C177.869 22.9973 176.969 22.0975 176.969 20.9977V3.00153C176.969 1.90176 177.869 1.00195 178.968 1.00195H210.962Z" fill="white"/>
<path d="M204.262 10.1005H203.962C203.562 11.1003 203.262 11.6002 202.962 13.0999H204.862C204.562 11.6002 204.562 10.9004 204.262 10.1005ZM207.161 15.9993H205.462C205.362 15.9993 205.362 15.9993 205.262 15.8993L205.062 14.9995L204.962 14.7995H202.562C202.462 14.7995 202.362 14.7995 202.362 14.9995L202.062 15.8993C202.062 15.9993 201.962 15.9993 201.962 15.9993H199.863L200.063 15.4994L202.962 8.70083C202.962 8.20093 203.262 8.00098 203.762 8.00098H205.262C205.362 8.00098 205.462 8.00098 205.462 8.20093L206.861 14.6996C206.961 15.0995 207.061 15.3994 207.061 15.7993C207.161 15.8993 207.161 15.8993 207.161 15.9993ZM193.764 15.6994L194.164 13.8997C194.264 13.8997 194.364 13.9997 194.364 13.9997C195.064 14.2997 195.764 14.4996 196.464 14.3996C196.663 14.3996 196.963 14.2997 197.163 14.1997C197.663 13.9997 197.663 13.4998 197.263 13.0999C197.063 12.8999 196.763 12.8 196.464 12.6C196.064 12.4001 195.664 12.2001 195.364 11.9002C194.164 10.9004 194.564 9.50066 195.264 8.80081C195.864 8.40089 196.164 8.00098 196.963 8.00098C198.163 8.00098 199.463 8.00098 200.063 8.20093H200.163C200.063 8.80081 199.963 9.3007 199.763 9.90058C199.263 9.70062 198.763 9.50066 198.263 9.50066C197.963 9.50066 197.663 9.50066 197.363 9.60064C197.163 9.60064 197.063 9.70062 196.963 9.8006C196.763 10.0006 196.763 10.3005 196.963 10.5005L197.463 10.9004C197.863 11.1003 198.263 11.3003 198.563 11.5002C199.063 11.8002 199.563 12.3001 199.663 12.8999C199.863 13.7998 199.563 14.5996 198.763 15.1995C198.263 15.5994 198.063 15.7993 197.363 15.7993C195.964 15.7993 194.864 15.8993 193.964 15.5994C193.864 15.7993 193.864 15.7993 193.764 15.6994ZM190.265 15.9993C190.365 15.2994 190.365 15.2994 190.465 14.9995C190.965 12.8 191.465 10.5005 191.865 8.30091C191.964 8.10096 191.964 8.00098 192.164 8.00098H193.964C193.764 9.20072 193.564 10.1005 193.264 11.2003C192.964 12.7 192.664 14.1997 192.264 15.6994C192.264 15.8993 192.164 15.8993 191.964 15.8993M180.967 8.20093C180.967 8.10096 181.167 8.00098 181.267 8.00098H184.666C185.166 8.00098 185.566 8.30091 185.666 8.80081L186.566 13.1999C186.566 13.2999 186.566 13.2999 186.666 13.3998C186.666 13.2999 186.766 13.2999 186.766 13.2999L188.865 8.20093C188.765 8.10096 188.865 8.00098 188.965 8.00098H191.065C191.065 8.10096 191.065 8.10096 190.965 8.20093L187.865 15.4994C187.765 15.6994 187.765 15.7993 187.665 15.8993C187.565 15.9993 187.365 15.8993 187.165 15.8993H185.666C185.566 15.8993 185.466 15.8993 185.466 15.6994L183.866 9.50066C183.666 9.3007 183.366 9.00077 182.966 8.90079C182.367 8.60085 181.267 8.40089 181.067 8.40089L180.967 8.20093Z" fill="#142688"/>
</g>
<defs>
<linearGradient id="paint0_linear_6140_17288" x1="65.6439" y1="12.2749" x2="63.6193" y2="9.10458" gradientUnits="userSpaceOnUse">
<stop stop-color="#F89F20"/>
<stop offset="0.25" stop-color="#F79A20"/>
<stop offset="0.533" stop-color="#F68D20"/>
<stop offset="0.62" stop-color="#F58720"/>
<stop offset="0.723" stop-color="#F48120"/>
<stop offset="1" stop-color="#F37521"/>
</linearGradient>
<linearGradient id="paint1_linear_6140_17288" x1="65.3249" y1="12.2319" x2="62.3656" y2="6.44714" gradientUnits="userSpaceOnUse">
<stop stop-color="#F58720"/>
<stop offset="0.359" stop-color="#E16F27"/>
<stop offset="0.703" stop-color="#D4602C"/>
<stop offset="0.982" stop-color="#D05B2E"/>
</linearGradient>
<clipPath id="clip0_6140_17288">
<rect width="37.992" height="24" fill="white"/>
</clipPath>
<clipPath id="clip1_6140_17288">
<rect width="37.992" height="24" fill="white" transform="translate(43.9922)"/>
</clipPath>
<clipPath id="clip2_6140_17288">
<rect width="37.992" height="24" fill="white" transform="translate(87.9844)"/>
</clipPath>
<clipPath id="clip3_6140_17288">
<rect width="37.992" height="24" fill="white" transform="translate(131.977)"/>
</clipPath>
<clipPath id="clip4_6140_17288">
<rect width="37.992" height="24" fill="white" transform="translate(175.969)"/>
</clipPath>
</defs>
</svg>
