<?xml version="1.0" encoding="utf-8"?>
<svg width="39" height="24" viewBox="0 0 39 24" fill="none" xmlns="http://www.w3.org/2000/svg">
<g id="Frame">
<path id="Vector" opacity="0.07" d="M35.9682 0.00244141H3.97495C2.27531 0.00244141 0.975586 1.30217 0.975586 3.00181V20.998C0.975586 22.6977 2.37529 23.9974 3.97495 23.9974H35.9682C37.6679 23.9974 38.9676 22.6977 38.9676 20.998V3.00181C38.9676 1.30217 37.5679 0.00244141 35.9682 0.00244141Z" fill="black"/>
<path id="Vector_2" d="M35.9684 1.00244C37.0682 1.00244 37.968 1.90225 37.968 3.00202V20.9982C37.968 22.098 37.0682 22.9978 35.9684 22.9978H3.97516C2.8754 22.9978 1.97559 22.098 1.97559 20.9982V3.00202C1.97559 1.90225 2.8754 1.00244 3.97516 1.00244H35.9684Z" fill="white"/>
<path id="Vector_3" d="M24.8706 8.30077C25.0705 7.30098 24.8706 6.60113 24.2707 6.00125C23.6708 5.3014 22.5711 5.00146 21.1714 5.00146H17.0722C16.7723 5.00146 16.5723 5.20142 16.4723 5.50136L14.9727 15.5992C14.9727 15.7992 15.0726 15.9991 15.2726 15.9991H17.972L18.3719 12.5999L20.1716 10.4003L24.8706 8.30077Z" fill="#003087"/>
<path id="Vector_4" d="M24.8707 8.30078L24.6708 8.50074C24.1709 11.3001 22.4712 12.2999 20.0717 12.2999H18.972C18.672 12.2999 18.4721 12.4999 18.3721 12.7998L17.7722 16.699L17.5723 17.6988C17.5723 17.8988 17.6722 18.0987 17.8722 18.0987H19.9718C20.2717 18.0987 20.4717 17.8988 20.4717 17.6988V17.5988L20.8716 15.1993V15.0994C20.8716 14.8994 21.1715 14.6994 21.3715 14.6994H21.6714C23.771 14.6994 25.3706 13.8996 25.7705 11.5001C25.9705 10.5003 25.8705 9.70049 25.3706 9.10061C25.2706 8.60072 25.0707 8.40076 24.8707 8.30078Z" fill="#3086C8"/>
<path id="Vector_5" d="M24.2708 8.10072C24.1708 8.00074 24.0709 8.00074 23.9709 8.00074C23.8709 8.00074 23.7709 8.00074 23.671 7.90076C23.371 7.80078 22.9711 7.80078 22.5712 7.80078H19.5718C19.4718 7.80078 19.3719 7.80078 19.3719 7.90076C19.1719 8.00074 19.0719 8.10072 19.0719 8.30068L18.3721 12.6997V12.7997C18.3721 12.4998 18.672 12.2998 18.9719 12.2998H20.2717C22.7711 12.2998 24.3708 11.3 24.8707 8.50063V8.30068C24.7707 8.2007 24.5708 8.10072 24.3708 8.10072H24.2708Z" fill="#012169"/>
</g>
</svg>
