<svg width="82" height="8" viewBox="0 0 82 8" fill="none" xmlns="http://www.w3.org/2000/svg">
<g id="Frame">
<path id="Vector" d="M81.2793 0.908321C68.3949 1.08185 55.5129 1.43434 42.6324 1.96577C33.709 2.33994 24.7909 2.84427 15.8675 3.33232C11.2441 3.59261 6.62073 3.82578 1.99733 4.03186C1.41863 4.13546 0.863876 4.7766 0.406708 5.87019C0.247646 6.24436 -0.314373 7.93627 0.237042 7.90374C8.52416 7.5621 16.8166 7.05778 25.1037 6.61853C35.3226 6.0654 45.5361 5.62617 55.7444 5.30079C63.6694 5.05134 71.5922 4.87781 79.5137 4.78021C80.094 4.68876 80.6501 4.04 81.1042 2.92561C81.2684 2.5677 81.8306 0.892052 81.2793 0.908321Z" fill="#FFB800"/>
</g>
</svg>
