<?xml version="1.0" encoding="utf-8"?>
<svg width="29" height="27" viewBox="0 0 29 27" fill="none" xmlns="http://www.w3.org/2000/svg">
<path d="M9.67078 20.9111C8.13192 20.9111 6.88281 22.1602 6.88281 23.6991C6.88281 25.238 8.13192 26.4871 9.67078 26.4871C11.2096 26.4871 12.4587 25.238 12.4587 23.6991C12.4523 22.1602 11.2096 20.9111 9.67078 20.9111ZM9.67078 25.2508C8.81443 25.2508 8.12549 24.5555 8.12549 23.7055C8.12549 22.8492 8.82087 22.1602 9.67078 22.1602C10.5207 22.1602 11.2161 22.8556 11.2161 23.7055C11.2161 24.5555 10.5271 25.2508 9.67078 25.2508Z" fill="black" stroke="black" stroke-miterlimit="10"/>
<path d="M21.4344 20.9111C19.8956 20.9111 18.6465 22.1602 18.6465 23.6991C18.6465 25.238 19.8956 26.4871 21.4344 26.4871C22.9733 26.4871 24.2224 25.238 24.2224 23.6991C24.216 22.1602 22.9733 20.9111 21.4344 20.9111ZM21.4344 25.2508C20.5781 25.2508 19.8892 24.5555 19.8892 23.7055C19.8892 22.8492 20.5845 22.1602 21.4344 22.1602C22.2908 22.1602 22.9797 22.8556 22.9797 23.7055C22.9797 24.5555 22.2844 25.2508 21.4344 25.2508Z" fill="black" stroke="black" stroke-miterlimit="10"/>
<path d="M27.7189 4.65972C27.5901 4.51807 27.4163 4.42793 27.2231 4.41505L7.06993 4.13818L6.50976 2.43836C6.11699 1.29227 5.05461 0.526061 3.85057 0.513184H1.7773C1.43604 0.513184 1.15918 0.790049 1.15918 1.1313C1.15918 1.47255 1.43604 1.74942 1.7773 1.74942H3.85057C4.52663 1.7623 5.11899 2.19369 5.33791 2.83112L9.27197 14.6848L8.96291 15.3995C8.61522 16.2881 8.71824 17.2925 9.23977 18.0909C9.75487 18.8764 10.6241 19.3658 11.5642 19.3915H23.6046C23.9458 19.3915 24.2227 19.1147 24.2227 18.7734C24.2227 18.4321 23.9458 18.1553 23.6046 18.1553H11.5642C11.0362 18.1424 10.5468 17.8655 10.2635 17.4148C9.98667 16.9706 9.92872 16.4233 10.109 15.9275L10.3537 15.3673L23.3856 14.0023C24.815 13.8478 25.9933 12.8047 26.3281 11.4011L27.8155 5.18126C27.8799 5.00741 27.8412 4.80781 27.7189 4.65972ZM25.1177 11.1306C24.9181 12.0321 24.1519 12.6952 23.2311 12.7725L10.3537 14.1053L7.46913 5.37442L26.444 5.65128L25.1177 11.1306Z" fill="black" stroke="black" stroke-miterlimit="10"/>
</svg>
