<svg width="30" height="30" viewBox="0 0 30 30" fill="none" xmlns="http://www.w3.org/2000/svg">
<g id="shopping-cart 1" clip-path="url(#clip0_6136_7306)">
<g id="Group">
<g id="Group_2">
<g id="Group_3">
<path id="Vector" d="M6.1875 26.4679C6.1875 24.6001 7.70161 23.0859 9.56945 23.0859C11.4373 23.0859 12.9515 24.6001 12.9514 26.4679H6.1875ZM6.1875 26.4679C6.1875 28.3357 7.70168 29.8498 9.56945 29.8498M6.1875 26.4679L9.56945 29.8498M9.56945 29.8498C11.4373 29.8498 12.9514 28.3357 12.9514 26.4679L9.56945 29.8498ZM11.0594 26.4679V26.468C11.0595 27.2908 10.3924 27.9579 9.56945 27.9579C8.74655 27.9579 8.07949 27.2908 8.07949 26.4679C8.07949 25.6451 8.74655 24.978 9.56945 24.978C10.3923 24.978 11.0594 25.6451 11.0594 26.4679Z" fill="black" stroke="black" stroke-width="0.5"/>
<path id="Vector_2" d="M24.284 26.4679V26.468C24.2841 27.2908 23.617 27.9579 22.7941 27.9579C21.9712 27.9579 21.3041 27.2908 21.3041 26.4679C21.3041 25.6451 21.9712 24.978 22.7941 24.978C23.6169 24.978 24.284 25.6451 24.284 26.4679ZM22.7941 23.0859C20.9262 23.0859 19.4121 24.6001 19.4121 26.4679C19.4121 28.3357 20.9263 29.8498 22.7941 29.8498C24.6618 29.8498 26.176 28.3357 26.176 26.4679C26.176 24.6001 24.6619 23.0859 22.7941 23.0859Z" fill="black" stroke="black" stroke-width="0.5"/>
<path id="Vector_3" d="M30.0482 4.903L30.0481 4.9031C30.2434 5.13149 30.3018 5.44624 30.2025 5.7288L28.5355 12.7094L30.0482 4.903ZM30.0482 4.903L30.0425 4.89675M30.0482 4.903L30.0425 4.89675M30.0425 4.89675C29.8559 4.69292 29.6007 4.56534 29.3258 4.53833L29.3153 4.5373M30.0425 4.89675L29.3153 4.5373M29.3153 4.5373L29.3048 4.53716M29.3153 4.5373L29.3048 4.53716M29.3048 4.53716L6.8288 4.22643L6.25797 2.48218L6.258 2.48217M29.3048 4.53716L6.258 2.48217M6.258 2.48217L6.25671 2.47842M6.258 2.48217L6.25671 2.47842M6.25671 2.47842C5.78097 1.09903 4.48925 0.167797 3.03021 0.152358L3.03021 0.152344M6.25671 2.47842L3.03021 0.152344M3.03021 0.152344H3.02757M3.03021 0.152344H3.02757M3.02757 0.152344H0.695995C0.173525 0.152344 -0.25 0.575868 -0.25 1.09834C-0.25 1.62081 0.173525 2.04433 0.695995 2.04433H3.02471C3.67529 2.05981 4.24794 2.47764 4.4612 3.09258C4.46137 3.09306 4.46154 3.09354 4.46171 3.09403L8.85017 16.3286L8.54031 17.0413L8.54012 17.0412M3.02757 0.152344L8.54012 17.0412M8.54012 17.0412L8.53649 17.0506M8.54012 17.0412L8.53649 17.0506M8.53649 17.0506C8.11931 18.1264 8.24461 19.3372 8.87312 20.3048L8.87365 20.3056M8.53649 17.0506L8.87365 20.3056M8.87365 20.3056C9.49754 21.258 10.5472 21.8458 11.6853 21.8801L11.6853 21.8802M8.87365 20.3056L11.6853 21.8802M11.6853 21.8802H11.6928M11.6853 21.8802H11.6928M11.6928 21.8802H25.2299C25.7523 21.8802 26.1759 21.4566 26.1759 20.9342C26.1759 20.4117 25.7523 19.9882 25.2299 19.9882H11.6959C11.1846 19.9744 10.714 19.7049 10.4432 19.2707L10.4432 19.2706M11.6928 21.8802L10.4432 19.2706M10.4432 19.2706C10.1732 18.838 10.1165 18.3057 10.2891 17.8261L10.5053 17.3398L25.0122 15.8236L25.0136 15.8235M10.4432 19.2706L25.0136 15.8235M25.0136 15.8235C26.7278 15.6347 28.1379 14.388 28.5354 12.7098L25.0136 15.8235ZM26.6921 12.2796L26.692 12.2796L26.691 12.2843C26.4889 13.1913 25.7188 13.8604 24.7925 13.9338L24.7925 13.9337L24.7865 13.9344L10.51 15.41L7.44655 6.12106L28.1145 6.4245L26.6921 12.2796Z" fill="black" stroke="black" stroke-width="0.5"/>
</g>
</g>
</g>
</g>
<defs>
<clipPath id="clip0_6136_7306">
<rect width="30" height="30" fill="white"/>
</clipPath>
</defs>
</svg>
