<svg width="22" height="22" viewBox="0 0 22 22" fill="none" xmlns="http://www.w3.org/2000/svg">
<g id="swap 1">
<g id="Group">
<path id="Vector" fill-rule="evenodd" clip-rule="evenodd" d="M3.3958 14.3958C3.79853 13.9931 4.45147 13.9931 4.85421 14.3958L6.875 16.4166L8.89577 14.3958C9.29851 13.9931 9.9515 13.9931 10.3542 14.3958C10.7569 14.7985 10.7569 15.4515 10.3542 15.8542L7.60423 18.6042C7.2015 19.0069 6.54853 19.0069 6.1458 18.6042L3.3958 15.8542C2.99307 15.4515 2.99307 14.7985 3.3958 14.3958Z" fill="black"/>
<path id="Vector_2" fill-rule="evenodd" clip-rule="evenodd" d="M6.875 3.09375C7.44453 3.09375 7.90625 3.55545 7.90625 4.125V17.875C7.90625 18.4445 7.44453 18.9062 6.875 18.9062C6.30545 18.9062 5.84375 18.4445 5.84375 17.875V4.125C5.84375 3.55545 6.30545 3.09375 6.875 3.09375Z" fill="black"/>
<path id="Vector_3" fill-rule="evenodd" clip-rule="evenodd" d="M14.3958 3.3958C14.7985 2.99307 15.4515 2.99307 15.8542 3.3958L18.6042 6.1458C19.0069 6.54853 19.0069 7.2015 18.6042 7.60423C18.2015 8.0069 17.5485 8.0069 17.1458 7.60423L15.125 5.58341L13.1042 7.60423C12.7015 8.0069 12.0485 8.0069 11.6458 7.60423C11.2431 7.2015 11.2431 6.54853 11.6458 6.1458L14.3958 3.3958Z" fill="black"/>
<path id="Vector_4" fill-rule="evenodd" clip-rule="evenodd" d="M15.125 3.09375C15.6945 3.09375 16.1562 3.55545 16.1562 4.125V17.875C16.1562 18.4445 15.6945 18.9062 15.125 18.9062C14.5555 18.9062 14.0938 18.4445 14.0938 17.875V4.125C14.0938 3.55545 14.5555 3.09375 15.125 3.09375Z" fill="black"/>
</g>
</g>
</svg>
