<svg width="630" height="10" viewBox="0 0 630 10" fill="none" xmlns="http://www.w3.org/2000/svg">
<path d="M628.051 0.334876C528.495 0.519075 428.954 0.950961 329.426 1.63053C260.474 2.10962 191.563 2.76888 122.612 3.40559C86.8869 3.74576 51.1616 4.04839 15.4364 4.31351C10.9647 4.45439 6.67762 5.33933 3.1442 6.85089C1.91484 7.36807 -2.4292 9.70728 1.83162 9.66464C65.8667 9.22781 129.943 8.56584 193.979 7.99391C272.94 7.27276 351.86 6.70921 430.739 6.30324C491.975 5.99241 553.196 5.78667 614.406 5.68599C618.89 5.56194 623.19 4.66647 626.697 3.12609C627.968 2.63145 632.311 0.314755 628.051 0.334876Z" fill="#FFB800"/>
</svg>
