<?xml version="1.0" encoding="utf-8"?>
<svg width="883" height="10" viewBox="0 0 883 10" fill="none" xmlns="http://www.w3.org/2000/svg">
<path d="M879.443 0.722534C740.194 0.884419 600.967 1.29399 461.759 1.95125C365.317 2.41489 268.932 3.0587 172.491 3.67996C122.523 4.01212 72.5544 4.30674 22.586 4.56386C16.3315 4.70373 10.3355 5.58772 5.39365 7.09848C3.67428 7.61539 -2.40116 9.95362 3.55839 9.91194C93.1234 9.48946 182.746 8.84185 272.312 8.28427C382.754 7.58082 493.139 7.03496 603.466 6.64667C689.115 6.34957 774.745 6.15755 860.358 6.07059C866.631 5.94754 872.644 5.05304 877.55 3.51344C879.326 3.01909 885.401 0.703368 879.443 0.722534Z" fill="#FFD100"/>
</svg>
