<svg width="247" height="10" viewBox="0 0 247 10" fill="none" xmlns="http://www.w3.org/2000/svg">
<g id="underline.svg" clip-path="url(#clip0_5922_57654)">
<path id="Vector" d="M246.253 0.181012C207.376 0.399325 168.505 0.865319 129.639 1.57899C102.713 2.08171 75.8028 2.76458 48.877 3.42492C34.9261 3.77733 20.9752 4.0922 7.02434 4.36956C5.27808 4.51197 3.60367 5.39839 2.22334 6.91116C1.7431 7.42876 0.0459382 9.76945 1.70981 9.72535C26.7158 9.26658 51.7379 8.58265 76.7442 7.98878C107.579 7.24058 138.398 6.64998 169.2 6.21698C193.113 5.88518 217.02 5.65846 240.923 5.5368C242.674 5.41121 244.353 4.51427 245.724 2.97269C246.22 2.47761 247.917 0.159431 246.253 0.181012Z" fill="#FFB800"/>
</g>
<defs>
<clipPath id="clip0_5922_57654">
<rect width="245.968" height="9.68263" fill="white" transform="translate(1 0.0429688) rotate(0.0322114)"/>
</clipPath>
</defs>
</svg>
