<svg width="370" height="11" viewBox="0 0 370 11" fill="none" xmlns="http://www.w3.org/2000/svg">
<path d="M368.358 0.781885C310.125 0.989317 251.901 1.44443 193.685 2.14722C153.354 2.64241 113.046 3.31775 72.7146 3.97054C51.818 4.31905 30.9214 4.63002 10.0249 4.90348C7.40926 5.04539 4.90146 5.93134 2.83433 7.44373C2.11513 7.96119 -0.42634 10.3014 2.06592 10.2578C39.5216 9.80601 77.0013 9.12908 114.457 8.54221C160.644 7.80264 206.806 7.22067 252.944 6.79629C288.762 6.47118 324.572 6.25115 360.375 6.13618C362.998 6.01108 365.514 5.11462 367.566 3.57341C368.309 3.07848 370.85 0.76077 368.358 0.781885Z" fill="#FFB800"/>
</svg>
