<svg width="385" height="9" viewBox="0 0 385 9" fill="none" xmlns="http://www.w3.org/2000/svg">
<path d="M383.882 0.000151359C323.03 0.223389 262.187 0.676843 201.353 1.36051C159.207 1.84186 117.087 2.49065 74.9423 3.1185C53.106 3.45336 31.2697 3.75332 9.43338 4.01842C6.70017 4.1517 4.08009 4.9765 1.92087 6.38334C1.16963 6.8647 -1.48478 9.04126 1.11955 8.9994C40.2597 8.55991 79.4248 7.91112 118.565 7.34605C166.829 6.63448 215.067 6.06942 263.28 5.65085C300.709 5.32994 338.13 5.10671 375.543 4.98114C378.284 4.86349 380.912 4.02891 383.055 2.59529C383.831 2.13486 386.485 -0.0207771 383.882 0.000151359Z" fill="#FFB800"/>
</svg>
