<svg width="206" height="9" viewBox="0 0 206 9" fill="none" xmlns="http://www.w3.org/2000/svg">
<path d="M365.934 0.000151359C307.927 0.223389 249.929 0.676843 191.939 1.36051C151.764 1.84186 111.613 2.49065 71.4385 3.1185C50.6231 3.45336 29.8077 3.75332 8.99234 4.01842C6.38692 4.1517 3.88934 4.9765 1.83107 6.38334C1.11495 6.8647 -1.41536 9.04126 1.06721 8.9994C38.3774 8.55991 75.7114 7.91112 113.022 7.34605C159.029 6.63448 205.012 6.06942 250.971 5.65085C286.65 5.32994 322.321 5.10671 357.985 4.98114C360.598 4.86349 363.103 4.02891 365.146 2.59529C365.886 2.13486 368.416 -0.0207771 365.934 0.000151359Z" fill="#FFB800"/>
</svg>
