<svg width="39" height="24" viewBox="0 0 39 24" fill="none" xmlns="http://www.w3.org/2000/svg">
<g id="Frame">
<path id="Vector" opacity="0.07" d="M35.9604 0.00244141H3.96714C2.2675 0.00244141 0.967773 1.30217 0.967773 3.00181V20.998C0.967773 22.6977 2.36748 23.9974 3.96714 23.9974H35.9604C37.66 23.9974 38.9598 22.6977 38.9598 20.998V3.00181C38.9598 1.30217 37.5601 0.00244141 35.9604 0.00244141Z" fill="black"/>
<path id="Vector_2" d="M35.9606 1.00244C37.0604 1.00244 37.9602 1.90225 37.9602 3.00202V20.9982C37.9602 22.098 37.0604 22.9978 35.9606 22.9978H3.96735C2.86758 22.9978 1.96777 22.098 1.96777 20.9982V3.00202C1.96777 1.90225 2.86758 1.00244 3.96735 1.00244H35.9606Z" fill="white"/>
<path id="Vector_3" d="M29.2619 10.1005H28.962C28.562 11.1003 28.2621 11.6002 27.9622 13.0999H29.8618C29.5618 11.6002 29.5618 10.9004 29.2619 10.1005ZM32.1613 15.9993H30.4616C30.3617 15.9993 30.3617 15.9993 30.2617 15.8993L30.0617 14.9995L29.9617 14.7995H27.5623C27.4623 14.7995 27.3623 14.7995 27.3623 14.9995L27.0624 15.8993C27.0624 15.9993 26.9624 15.9993 26.9624 15.9993H24.8628L25.0628 15.4994L27.9622 8.70083C27.9622 8.20093 28.2621 8.00098 28.762 8.00098H30.2617C30.3617 8.00098 30.4616 8.00098 30.4616 8.20093L31.8613 14.6996C31.9613 15.0995 32.0613 15.3994 32.0613 15.7993C32.1613 15.8993 32.1613 15.8993 32.1613 15.9993ZM18.7641 15.6994L19.164 13.8997C19.264 13.8997 19.364 13.9997 19.364 13.9997C20.0638 14.2997 20.7637 14.4996 21.4635 14.3996C21.6635 14.3996 21.9634 14.2997 22.1634 14.1997C22.6633 13.9997 22.6633 13.4998 22.2634 13.0999C22.0634 12.8999 21.7635 12.8 21.4635 12.6C21.0636 12.4001 20.6637 12.2001 20.3638 11.9002C19.164 10.9004 19.5639 9.50066 20.2638 8.80081C20.8637 8.40089 21.1636 8.00098 21.9634 8.00098C23.1632 8.00098 24.4629 8.00098 25.0628 8.20093H25.1628C25.0628 8.80081 24.9628 9.3007 24.7628 9.90058C24.2629 9.70062 23.763 9.50066 23.2632 9.50066C22.9632 9.50066 22.6633 9.50066 22.3633 9.60064C22.1634 9.60064 22.0634 9.70062 21.9634 9.8006C21.7635 10.0006 21.7635 10.3005 21.9634 10.5005L22.4633 10.9004C22.8632 11.1003 23.2632 11.3003 23.5631 11.5002C24.063 11.8002 24.5629 12.3001 24.6629 12.8999C24.8628 13.7998 24.5629 14.5996 23.763 15.1995C23.2632 15.5994 23.0632 15.7993 22.3633 15.7993C20.9636 15.7993 19.8639 15.8993 18.9641 15.5994C18.8641 15.7993 18.8641 15.7993 18.7641 15.6994ZM15.2648 15.9993C15.3648 15.2994 15.3648 15.2994 15.4648 14.9995C15.9647 12.8 16.4646 10.5005 16.8645 8.30091C16.9645 8.10096 16.9645 8.00098 17.1644 8.00098H18.9641C18.7641 9.20072 18.5641 10.1005 18.2642 11.2003C17.9643 12.7 17.6643 14.1997 17.2644 15.6994C17.2644 15.8993 17.1644 15.8993 16.9645 15.8993M5.9668 8.20093C5.9668 8.10096 6.16675 8.00098 6.26673 8.00098H9.66602C10.1659 8.00098 10.5658 8.30091 10.6658 8.80081L11.5656 13.1999C11.5656 13.2999 11.5656 13.2999 11.6656 13.3998C11.6656 13.2999 11.7656 13.2999 11.7656 13.2999L13.8651 8.20093C13.7652 8.10096 13.8651 8.00098 13.9651 8.00098H16.0647C16.0647 8.10096 16.0647 8.10096 15.9647 8.20093L12.8653 15.4994C12.7654 15.6994 12.7654 15.7993 12.6654 15.8993C12.5654 15.9993 12.3654 15.8993 12.1655 15.8993H10.6658C10.5658 15.8993 10.4658 15.8993 10.4658 15.6994L8.86619 9.50066C8.66623 9.3007 8.36629 9.00077 7.96638 8.90079C7.3665 8.60085 6.26673 8.40089 6.06678 8.40089L5.9668 8.20093Z" fill="#142688"/>
</g>
</svg>
