<svg width="83" height="67" viewBox="0 0 83 67" fill="none" xmlns="http://www.w3.org/2000/svg">
<g id="Group">
<path id="Vector" d="M66.8249 17.1508L56.7811 39.6713C56.5398 40.2333 57.7105 40.874 58.0877 41.0638C59.1874 41.5475 60.3962 41.8339 61.6585 41.9098C63.2309 42.0167 66.4534 42.169 67.165 40.5722L77.2045 18.0363C77.4629 17.4682 76.2921 16.8275 75.9021 16.6593C74.8021 16.1757 73.5936 15.8892 72.331 15.8134C70.7546 15.6908 67.5535 15.548 66.8249 17.1508Z" fill="#FFB800"/>
<path id="Vector_2" d="M28.354 47.4397C24.0051 42.4234 18.9151 38.0281 13.205 34.3588C12.8055 34.1959 12.3632 34.1166 11.9057 34.1259C11.4482 34.1352 10.9853 34.2328 10.5459 34.4126C9.10329 34.88 7.73459 35.591 6.5137 36.5075C5.79345 37.0018 1.77685 40.3038 3.42589 41.3423C9.13864 45.0085 14.2291 49.4041 18.5749 54.4232C19.0802 54.9958 20.6695 54.5352 21.234 54.3694C22.7148 53.9018 24.1202 53.1776 25.3704 52.2376C26.2858 51.5547 29.7434 48.9802 28.3888 47.4274" fill="#FFB800"/>
<path id="Vector_3" d="M45.5855 35.8122C44.1955 30.0455 42.8238 24.2724 41.4338 18.5058C41.4034 17.948 41.2283 17.4219 40.9227 16.9703C40.6172 16.5187 40.1898 16.1542 39.6751 15.9065C39.092 15.7752 38.4629 15.7858 37.8454 15.9373C37.2278 16.0888 36.6414 16.3763 36.1396 16.7737C34.7466 17.7939 33.636 19.1114 32.9278 20.5839C32.1065 22.033 31.7488 23.6203 31.9008 25.1406C33.2907 30.9073 34.6624 36.6804 36.0524 42.4471C36.0828 43.0048 36.2579 43.5309 36.5635 43.9825C36.8691 44.4341 37.2966 44.7986 37.8111 45.0464C38.3914 45.1756 39.0168 45.1646 39.6308 45.0143C40.2449 44.864 40.8283 44.5792 41.3285 44.1855C42.7307 43.1673 43.8485 41.8466 44.5585 40.369C45.3797 38.9199 45.7375 37.3324 45.5855 35.8122Z" fill="#FFB800"/>
</g>
</svg>
